<mxfile host="app.diagrams.net" modified="2023-04-10T20:09:30.401Z" agent="Mozilla/5.0 (Windows NT 10.0; Win64; x64) AppleWebKit/537.36 (KHTML, like Gecko) Chrome/110.0.0.0 Safari/537.36" etag="Q9zBz32bi0SVKNsW-3Iv" version="21.1.5" type="github">
  <diagram id="C5RBs43oDa-KdzZeNtuy" name="Page-1">
    <mxGraphModel dx="1340" dy="1576" grid="1" gridSize="10" guides="1" tooltips="1" connect="1" arrows="1" fold="1" page="1" pageScale="1" pageWidth="827" pageHeight="1169" math="0" shadow="0">
      <root>
        <mxCell id="WIyWlLk6GJQsqaUBKTNV-0" />
        <mxCell id="WIyWlLk6GJQsqaUBKTNV-1" parent="WIyWlLk6GJQsqaUBKTNV-0" />
        <mxCell id="DI7IS6pDsbX9Qd_uhNwN-0" value="Partido" style="swimlane;fontStyle=1;align=center;verticalAlign=top;childLayout=stackLayout;horizontal=1;startSize=26;horizontalStack=0;resizeParent=1;resizeParentMax=0;resizeLast=0;collapsible=1;marginBottom=0;whiteSpace=wrap;html=1;" parent="WIyWlLk6GJQsqaUBKTNV-1" vertex="1">
          <mxGeometry x="120" y="280" width="160" height="130" as="geometry" />
        </mxCell>
        <mxCell id="DI7IS6pDsbX9Qd_uhNwN-1" value="-equipoLocal: String&lt;br&gt;-equipoVisitante: String&lt;br&gt;-golesLocal: int&lt;br&gt;-golesVisitante: int" style="text;strokeColor=none;fillColor=none;align=left;verticalAlign=top;spacingLeft=4;spacingRight=4;overflow=hidden;rotatable=0;points=[[0,0.5],[1,0.5]];portConstraint=eastwest;whiteSpace=wrap;html=1;" parent="DI7IS6pDsbX9Qd_uhNwN-0" vertex="1">
          <mxGeometry y="26" width="160" height="64" as="geometry" />
        </mxCell>
        <mxCell id="DI7IS6pDsbX9Qd_uhNwN-2" value="" style="line;strokeWidth=1;fillColor=none;align=left;verticalAlign=middle;spacingTop=-1;spacingLeft=3;spacingRight=3;rotatable=0;labelPosition=right;points=[];portConstraint=eastwest;strokeColor=inherit;" parent="DI7IS6pDsbX9Qd_uhNwN-0" vertex="1">
          <mxGeometry y="90" width="160" height="8" as="geometry" />
        </mxCell>
        <mxCell id="DI7IS6pDsbX9Qd_uhNwN-3" value="+ resultado(): 1, 2, 0" style="text;strokeColor=none;fillColor=none;align=left;verticalAlign=top;spacingLeft=4;spacingRight=4;overflow=hidden;rotatable=0;points=[[0,0.5],[1,0.5]];portConstraint=eastwest;whiteSpace=wrap;html=1;" parent="DI7IS6pDsbX9Qd_uhNwN-0" vertex="1">
          <mxGeometry y="98" width="160" height="32" as="geometry" />
        </mxCell>
        <mxCell id="4N3UYrN6VFZyfdFpkZMw-0" value="Campeonato" style="swimlane;fontStyle=1;align=center;verticalAlign=top;childLayout=stackLayout;horizontal=1;startSize=26;horizontalStack=0;resizeParent=1;resizeParentMax=0;resizeLast=0;collapsible=1;marginBottom=0;whiteSpace=wrap;html=1;" parent="WIyWlLk6GJQsqaUBKTNV-1" vertex="1">
          <mxGeometry x="120" y="521" width="160" height="90" as="geometry" />
        </mxCell>
        <mxCell id="4N3UYrN6VFZyfdFpkZMw-1" value="-ArrayList&amp;lt;Partido&amp;gt;" style="text;strokeColor=none;fillColor=none;align=left;verticalAlign=top;spacingLeft=4;spacingRight=4;overflow=hidden;rotatable=0;points=[[0,0.5],[1,0.5]];portConstraint=eastwest;whiteSpace=wrap;html=1;" parent="4N3UYrN6VFZyfdFpkZMw-0" vertex="1">
          <mxGeometry y="26" width="160" height="26" as="geometry" />
        </mxCell>
        <mxCell id="4N3UYrN6VFZyfdFpkZMw-2" value="" style="line;strokeWidth=1;fillColor=none;align=left;verticalAlign=middle;spacingTop=-1;spacingLeft=3;spacingRight=3;rotatable=0;labelPosition=right;points=[];portConstraint=eastwest;strokeColor=inherit;" parent="4N3UYrN6VFZyfdFpkZMw-0" vertex="1">
          <mxGeometry y="52" width="160" height="8" as="geometry" />
        </mxCell>
        <mxCell id="4N3UYrN6VFZyfdFpkZMw-3" value="+Campeonato(): &lt;b&gt;&lt;font style=&quot;font-size: 10px;&quot;&gt;constructor&lt;/font&gt;&lt;/b&gt;" style="text;strokeColor=none;fillColor=none;align=left;verticalAlign=top;spacingLeft=4;spacingRight=4;overflow=hidden;rotatable=0;points=[[0,0.5],[1,0.5]];portConstraint=eastwest;whiteSpace=wrap;html=1;" parent="4N3UYrN6VFZyfdFpkZMw-0" vertex="1">
          <mxGeometry y="60" width="160" height="30" as="geometry" />
        </mxCell>
        <mxCell id="4N3UYrN6VFZyfdFpkZMw-9" value="1" style="endArrow=open;html=1;endSize=12;startArrow=diamondThin;startSize=14;startFill=1;edgeStyle=orthogonalEdgeStyle;align=left;verticalAlign=bottom;rounded=0;exitX=0.5;exitY=0;exitDx=0;exitDy=0;entryX=0.501;entryY=1.027;entryDx=0;entryDy=0;entryPerimeter=0;" parent="WIyWlLk6GJQsqaUBKTNV-1" source="4N3UYrN6VFZyfdFpkZMw-0" target="DI7IS6pDsbX9Qd_uhNwN-3" edge="1">
          <mxGeometry x="-1" y="3" relative="1" as="geometry">
            <mxPoint x="350" y="400" as="sourcePoint" />
            <mxPoint x="190" y="400" as="targetPoint" />
          </mxGeometry>
        </mxCell>
        <mxCell id="4N3UYrN6VFZyfdFpkZMw-10" value="Apuesta" style="swimlane;fontStyle=1;align=center;verticalAlign=top;childLayout=stackLayout;horizontal=1;startSize=26;horizontalStack=0;resizeParent=1;resizeParentMax=0;resizeLast=0;collapsible=1;marginBottom=0;whiteSpace=wrap;html=1;" parent="WIyWlLk6GJQsqaUBKTNV-1" vertex="1">
          <mxGeometry x="400" y="280" width="160" height="98" as="geometry" />
        </mxCell>
        <mxCell id="4N3UYrN6VFZyfdFpkZMw-11" value="-nombre: String&lt;br&gt;-equipoLocal: String&lt;br&gt;-equipoVisitante: String&lt;br&gt;-resultado: int" style="text;strokeColor=none;fillColor=none;align=left;verticalAlign=top;spacingLeft=4;spacingRight=4;overflow=hidden;rotatable=0;points=[[0,0.5],[1,0.5]];portConstraint=eastwest;whiteSpace=wrap;html=1;" parent="4N3UYrN6VFZyfdFpkZMw-10" vertex="1">
          <mxGeometry y="26" width="160" height="64" as="geometry" />
        </mxCell>
        <mxCell id="4N3UYrN6VFZyfdFpkZMw-12" value="" style="line;strokeWidth=1;fillColor=none;align=left;verticalAlign=middle;spacingTop=-1;spacingLeft=3;spacingRight=3;rotatable=0;labelPosition=right;points=[];portConstraint=eastwest;strokeColor=inherit;" parent="4N3UYrN6VFZyfdFpkZMw-10" vertex="1">
          <mxGeometry y="90" width="160" height="8" as="geometry" />
        </mxCell>
        <mxCell id="4N3UYrN6VFZyfdFpkZMw-14" value="Apostador" style="swimlane;fontStyle=1;align=center;verticalAlign=top;childLayout=stackLayout;horizontal=1;startSize=26;horizontalStack=0;resizeParent=1;resizeParentMax=0;resizeLast=0;collapsible=1;marginBottom=0;whiteSpace=wrap;html=1;" parent="WIyWlLk6GJQsqaUBKTNV-1" vertex="1">
          <mxGeometry x="400" y="521" width="160" height="120" as="geometry" />
        </mxCell>
        <mxCell id="4N3UYrN6VFZyfdFpkZMw-15" value="-ArrayList&amp;lt;Apuesta&amp;gt;&lt;br&gt;-Campeonato: &lt;font style=&quot;font-size: 10px;&quot;&gt;&lt;b&gt;Class&lt;/b&gt;&lt;/font&gt;&lt;br&gt;" style="text;strokeColor=none;fillColor=none;align=left;verticalAlign=top;spacingLeft=4;spacingRight=4;overflow=hidden;rotatable=0;points=[[0,0.5],[1,0.5]];portConstraint=eastwest;whiteSpace=wrap;html=1;" parent="4N3UYrN6VFZyfdFpkZMw-14" vertex="1">
          <mxGeometry y="26" width="160" height="34" as="geometry" />
        </mxCell>
        <mxCell id="4N3UYrN6VFZyfdFpkZMw-16" value="" style="line;strokeWidth=1;fillColor=none;align=left;verticalAlign=middle;spacingTop=-1;spacingLeft=3;spacingRight=3;rotatable=0;labelPosition=right;points=[];portConstraint=eastwest;strokeColor=inherit;" parent="4N3UYrN6VFZyfdFpkZMw-14" vertex="1">
          <mxGeometry y="60" width="160" height="10" as="geometry" />
        </mxCell>
        <mxCell id="4N3UYrN6VFZyfdFpkZMw-17" value="&lt;font style=&quot;&quot;&gt;&lt;font style=&quot;font-size: 9px;&quot;&gt;+Apostador(Campeonato): &lt;b style=&quot;&quot;&gt;const.&lt;br&gt;&lt;/b&gt;&lt;/font&gt;+agregarApuesta()&lt;br&gt;+HashMap&amp;lt;String, Integer&amp;gt;&lt;br&gt;&lt;/font&gt;" style="text;strokeColor=none;fillColor=none;align=left;verticalAlign=top;spacingLeft=4;spacingRight=4;overflow=hidden;rotatable=0;points=[[0,0.5],[1,0.5]];portConstraint=eastwest;whiteSpace=wrap;html=1;" parent="4N3UYrN6VFZyfdFpkZMw-14" vertex="1">
          <mxGeometry y="70" width="160" height="50" as="geometry" />
        </mxCell>
        <mxCell id="4N3UYrN6VFZyfdFpkZMw-18" value="1" style="endArrow=open;html=1;endSize=12;startArrow=diamondThin;startSize=14;startFill=1;edgeStyle=orthogonalEdgeStyle;align=left;verticalAlign=bottom;rounded=0;exitX=0.5;exitY=0;exitDx=0;exitDy=0;entryX=0.501;entryY=1.027;entryDx=0;entryDy=0;entryPerimeter=0;" parent="WIyWlLk6GJQsqaUBKTNV-1" source="4N3UYrN6VFZyfdFpkZMw-14" edge="1">
          <mxGeometry x="-1" y="3" relative="1" as="geometry">
            <mxPoint x="630" y="379" as="sourcePoint" />
            <mxPoint x="480" y="390" as="targetPoint" />
          </mxGeometry>
        </mxCell>
        <mxCell id="4N3UYrN6VFZyfdFpkZMw-20" value="en el HashMap tengo los for&quot;mejorados&quot; y la comparacion con el metodo resultado del Partido al archivo &quot;apuesta.txt&quot;" style="rounded=1;whiteSpace=wrap;html=1;" parent="WIyWlLk6GJQsqaUBKTNV-1" vertex="1">
          <mxGeometry x="600" y="560" width="140" height="89" as="geometry" />
        </mxCell>
        <mxCell id="4N3UYrN6VFZyfdFpkZMw-21" value="" style="shape=image;verticalLabelPosition=bottom;labelBackgroundColor=default;verticalAlign=top;aspect=fixed;imageAspect=0;image=data:image/png,iVBORw0KGgoAAAANSUhEUgAAAHwAAABcCAYAAACsstGIAAAAAXNSR0IArs4c6QAAAARnQU1BAACxjwv8YQUAAAAJcEhZcwAADsMAAA7DAcdvqGQAAAspSURBVHhe7ZwJWFXVFsd/l5kLCCiKEQKiiCCoqE/TnqkopiWalWWG4lioOZVZmpmpOdXLNHHMObUsn0NPzQYs7ZkDCIooKAjihGICIpOg593hmPrMvBcQL5z94zvfPXuvs87lu/+z9j17n3WXysPTW8IEkcwaM2TeaKy/jCBy33W59+EjYYFTTUeuX7lM/fAlDCGSkcuPyNbKj5n8anrcOML+Q0UEtGyFpVQx16QkWeBYqwY2ZppXtyCaeKvJyDgvW6sGJhvhjwJJCmBg5ASeclAhFedyIeE7ls3fyqlilXxE5UcIrjBMd0gXPBSE4ApDCK4whOAKQwiuMITgCkMIrjBKJbh2Rcqv5wQmDOtArQpaBROUD6WMcHMcarnxWG0X1HJPVUB7IdduM5TpS9exfP5rNKqCF7NYaZORJGt8e45nRBc1cQeyaN7sDyKHLyZBVXWWVbUYLLgkedBr5kyedbv9AdyMWcCgeXt0+7fsj28LY+5vN3V9vn3nM8ZhNRELDujakp0v3cLDaOfvTjWyObX/K1as2UcmKo2/K89Pm4P34ZUUNnuRwOolXIjbwOIlu8i4qX/Pv/O/hWT7D177aBiNM//NR9O3kmGgYNr/v8eoULI3LeVXp/5Evg4Lq6DgRgzp59nx8RjeHTdat83/JVPuNwztcNkyfCxdnRLZvHAKMyK3kdc0gvBgJ/kIPV4B7hxfM51ZS6IobjyQvu31dkP9sXTAyd4atbOjkV836WydN5/dZyruUeyjwGDBVaoS8q5c5OJF/ZZVeEO2GIbW/+CCIbwxfS17E1I5ffwndsXn41XPWz5Cz8WDW4g6nkbqoW/ZHncdj7peun5D/VVXo5gzdiRvTvqSU0ZEp/7QqhXNf0WFTsucm/bh7RkLWfDFapYuW82Yp5yxsLSUrXry867Ke1BQUIiltbXcMsxfS8nVy+QUyg3BXVSY4JJ5M14a0hGL6KV8MmUiH06eyKqDObL1wZTVX6CnHAXP0UQk2Dk46FraGY29g5q83Fxdmxp1cLNL48COGE6lp3NGs+XduDc674sx/pY2WJmLycdfUW6Cq1Q5HE04S90OYbRt6EW9lmE82+Q6iQkp+gOunCOjoB5P9nwCbw8vAoIHE9LQCFEM9JeqPcWoucuInPoyXkbMoyXJDEdXD9zreFCnphozlZrqHp6atgu2VWg+XibBJc3fnaRtnc+65Fr0GDGZsWGBXNk+j/UxRTqbqiSaDct2URw0mHfen0CfoEvEHL6msxmCwf4lhRQUFlOUX4Bx99vuhIyeydRps5ga3gpb+1YM1OxPmTqIZhbyIVWAUi28aC/45kOXElYwhzdXHZN7BZUBgyNcMlPj7OqKq6s7Pm3C6R50ncMxJ2WroLJg+EqbcyiT5rxCXekG+Vmnif9+Bat2JlNYxVaiqjpiLV1hVNg8XGAaCMEVhhBcYQjBFYYQXGEIwRWGEFxhCMEVxiNdeGnUfwHDbZYzbFG03PNokRwDeX5AGG19a2NTdJGk39ay8ps4cqrQaqKIcBlJqka7QaPoYBPNlx9P4pO1Mdh1GMUAOaeuqmDu6OQ8Wd7/W/RZpUsJdcklsM84hrzcjZYexaTEJpNzK6vUxpsur73N8MHhvNC1LQ0dr3D86DkK5VwxySmIV0ePJ6JfL9r5mZFz3ZsGZnFsi9aX1QgcuJhJrW2x6hjBqH4v0D7AmcsJcWQUyv629TTnf4th/fvxXJcnaWCfSWLChbvW83VZq7M/YkCzm8TuSeKaodGpCuTp3p4c+2Iuu1JzyDqfwGWXznRzP8t/Dp6TD6r8GB3hHoGeJK+fwayFO8j1D6Nf51q6fklS0aj3m4Q6x7N29kSmL9pJQYvhDO5YXbZb0Lz3UNrbx2siaAqLf1Hj53c7X+0Wlr4NsPz5c2bOXs5h2w4M6tMaG0nS+Jvh/9IoXnBLY+PcD/h4xV4s240gvG012VOmlFmrKqJZOmo8m9Lki0vzfrZqK4oKC3TtqoLRgmce3MzPCWmkxm1h8+9ZeNb31X46GosHAf72xH+/jpiUdNLid7L190wa+PvpHXGjfl07ju1cye8nT5Oyfx2/JpvLttuYpezm2wMnOJ28l/Xb47Cu708dncWNRg1r6Pz3njhNauwmNu/Lwzegoc56i9Jmrf4/Zo8/yzNNs9kdFS/3VA2MFrwgT85R03AtPx9zG1v0mWVqbK2taDlsjS6jVLu939UNcysbzHUXhB22NsXk5xXrjtZqkZ9/b/QUFVxDkoUqORHFhh9iyda1HLBT3/bXkpuXj42dg3z+25Q1a1Wya0y/kT2w+GEJW1Kr1sPEcr5py+fQWn1GqX4bz6RV+7hRykhTXTnCjztiySxDpBqLZOFJ9zEjaXxmOXM3nqCkAt+7IjBacFtNRN3CXq3mRkEe+pjLp6DIGrPCs5w9k67bLuVpvlLNbn1gWrslajv9eKANSrXaVrdvGLnk5d/21+Jgp6ZQM+Lcc0GVMmtVwoW2w8bRuWQLny7+L1lVTGwtRgtes0UPOvp74dW0B8894czplJP68Zl0jh7LIeCZgbRp4IGHXzAD353Gqy3s9I6cI/lUHv5P96e1jyf1Wr1Kex9jRDlHwvE/9P4NPKkb1FPz/nYkHk2U7XpKn7Vqhf8r79DX6yQbvjpASY3auGpTulzs7/nKqMwYPC3TxDN+wV0wOxyFOiSCl9rXpyRhAys2HNZNy7SaX0pKoqR+J7r3fI7gFu7kxaxk+cZE8jT3wCrVTc4nn6Va4y50C+1MkFMSMWfr4KOK/XNa5hoUSguzaLYfytC170R7/swTJyiu34HQ7j1o38SFy7u/YOWO03enWZm70uSp5rhcPcIvu5PINThKNdH9ci/8H3MnqEMXOoXot45NzYn78QjZBp/HtDHi16P6X3fW2zWAT6L0qceCyofRQ7omVuU9QWWknO/SBaaOyFpVGCLCFYYQXGEIwRWGEFxhCMEVhhBcYQjBFYbJCS7quD5cTDDCK2cdV0myJHjcOlasWn/X9kYb07poxUpbOaEdjGydXXHUpempcGkdwfBORXw1dTq7L5rO8wfDn5b5DeCzvjYczG7Kk46/smiTmvBBLcn+8V/M2JioS0J4UC1UbVbq6zY/8VO1tjztreZa6h7WLVpJbJbe3mr4aiJaygkS5zbx3vivuXDHY0lTrtV6J+qA/rw31IfoOR+yKdm0SnkaN6Q7Vydr8+fsuRlC74BjLPj6GK4hnQjUmAythXq/rFQtsWvG6uq4Tvzm3kJBpl+rVY9UK4QRw4Mp3r2Wn1NN7zGycYLnnyEpKZ74lAKy0w+RcvA4523tsDfXDBUG1kK9f1YqXL96SVfH9dK1e6PC1Gu1/onaUjNynURqNZYZH/TBz9q0vjHL4aZNM5zKn4shtVDvn5X6YCpDrVZV2nYiZ09l8rjJRKme4cUQfd6+qVBud+mlqYVqTFZqZavVqipJJzEll8ce95B7TIPym5aVtZbqgzDxWq2S9T8Z+ulEurrq/bS3JdY2VtwoKdG1TYXyE7yMtVS1N1XVamoL/7lSy95KMx23o0ZtbeZoTewtNOcx8VqtFCZz7qovIX26E+jlgU/rfoQGwbH4JPkA06DcBC9rLVXwoefEOZq798+Y1ssfVe3OvKXZnzHrQ3r6lP38D7tWq0qVwXcLI4m1Dub1idMY29ufy9s+ZfV+0/ptmlh4URjlN6QLKgVCcIUhBFcYQnCFIQRXGEJwhSEEVxhCcIUhBFcYQnCFIQRXGEJwhSEEVxhCcIUhBFcYQnCFIQRXGEJwhSEEVxhCcIUhBFcYQnCFIQRXGEJwhSEEVxTwP4ofR5rmhOo6AAAAAElFTkSuQmCC;" parent="WIyWlLk6GJQsqaUBKTNV-1" vertex="1">
          <mxGeometry x="290" y="1043.5" width="124" height="92" as="geometry" />
        </mxCell>
        <mxCell id="4N3UYrN6VFZyfdFpkZMw-22" value="" style="shape=image;verticalLabelPosition=bottom;labelBackgroundColor=default;verticalAlign=top;aspect=fixed;imageAspect=0;image=data:image/png,iVBORw0KGgoAAAANSUhEUgAAAecAAABACAYAAAAgY7+2AAAAAXNSR0IArs4c6QAAAARnQU1BAACxjwv8YQUAAAAJcEhZcwAADsMAAA7DAcdvqGQAADRUSURBVHhe7Z0HeBTV2oDfTXbTNpUE0oBUEkgBQi+C9I5UBb0qiHAvCorgleIFu6LYfxUuIhYQvddy7ahYUBSkJkAqgZBGCOl103az88/sbkghyW4gIMK8eebJzJw553ynfuc7c2aPoqtfoICMjMwVRWFlhZ2dPUqlEiuFwnT38qIXBHQ6HVVVlQh6vemujIzM1YiV6b+MjMwVQlLMTo7O2KhUV0wxS0hxSXFKcUsyyMjIXL3ILVRG5gojWcxXUCdfgBS3JIOMjMzVi6ycLwOCoKTHjId5+N6RdBLktwbXK6pOKhYvcuaBXo3rgFJpbTq7EKnu2NgqpRPTnctDazLIXH0Ej3Pk5bm2hDvI/cn1QpuUsyB4MuPJD3jnvQ8Nx1ubN/H0P28nyqNtZoDQezEbX/874U06oLrwV4xQme5cXVgunzVOnXzw9vLAwXSnvRBcIpnxwHO8tOk9Nr6ygWWze+FyhQYA13v5N6Tr7OfZumIkyhby3rGbHW+tcaRncRU/pZpumrBSNN/srDv1Zcys2YwfPxhf916MmTGcztZtK1uFygGllXk/TWUQbP0Z9PwkIgIFbIYNZ+rqiCtWr9oLIawPEx/rjftlkvtSw2/Nv7n8P3O8mgRXO15b58T4Dn+tcpG5OC7Kcj7x8UpWr3yAdc++xWHlcO5ZPEW2EBugUFRzcPNS7nvkY9Lacf5SEJy58e5ljLQ7zPvPP8ILO46gHrmMu0a4mp64Mlzv5S8l1duzE4XnstA1U76CSsnyhQ5ovi5myUfVxJZaVgc6BnfH6sQ3fPXlb5wpOs3RA/Gc05kcLcR30GyGBIiWd1vR6RGkv1rQ1+pBPMRTmSuFmfyvOqflzU0lPHFKxZr5dnJ/ex1g7eLq9pjp3AIc6TFqAs4n3ufH+FLKi7NJzHBg6KxIKn/8hdNaBYI6lCmLHmDRvDuZNWkEYe7FJB8/QwWiW58lbF6/nNmD/VHZBjBkxmymi8e0Xlr2/JJEpSn8DmUl9Ll9FXffPJG+nTWciE6lXLCsg2stfonIBZt5ZLA9NqMXs+zOWYyIcCM//ijnqozugp0/YxYsZ8mC+cycNFz0X8qpuEw0hvjNyzdwyTaeWnqLMV0DrDn4Yxzlpg5cCLqDF58fj2bXXjJ1xnuE3c0r60dT8u1ezujFPLIPYsLfH+Te+XcyfcJQQhzzSIrPpkoKQxHJ+Ll+JLz1KrtTSyg6G0++xzimdD7D14eyjOFdVv788hecezFn+SoWz7uDm6dNZEh4B4oSjpJdacpPMwiCFV6D7+L+5Uu4ffpwfKvcGP3orbju+YmTYhhSn9ep320svm8J82+dzsg+XahIjiGjTOw8Rct+5lNbWDV/Nv18rXEIHmmUf/p4XE9+ybE8owzqAQ48Fqrl8S015DSjvO3s7ExnRgQxbe7BA+je1RN7WwUO9gqKCq3x9FdTmVNMjdKbbmEd0Os70a1nELZFWZQqfQgKCyfQtwM2tRWUllfjEiiG0aUTTmobHJS15OVXYO/uhnVVBTpT/W9IdXWV6UxEr8Z7lDuVv58mT+1DqE8Fpw4UnB98CA4dCL5lIH3Esu4xwh9310oKkkoN4QqCAyEPTiHErRqPqUPpMzkEbx8dBfFF1IhpkwaV3VdNIrD6BGfPGoKjw/SJjOxbwcnYMsO1YOtC4Nyh9J/TUwzfD3cnDfknys7LLag7iU1lKP1mRtJ9dDc6h9hReeoc5WK7FcL7MXnlQML6iGm1caPr+DBCx/UgpLuOtP0F1IppaE1+c5gLX6f0IHL1eELVZ0k/JeWpDb7zJjG0fzUZR4rRRfQ3K5+5/JeQTlNTBYbPsUV9uJpoTWPZBafBLH3hGe7qr+eo2J7KGviV+etx6e+cq2vQisFYq8TKISgZMO+fTHRN4vNNT7D+jW/Q9F7MvFEmyy7hQ55ct5p12w5TVX6At9euYp14PLJpN8XGJwz4R3Yl6f31PPfmr+h6LeAOCy1Ds/GbUIWGoPrpNZ7d8DbH7Edy922DsRN7ZamTDL15OXP8s/ns9UdZv+k7KkX/iyZ4mXwaaU2+mO3/NFiVaz9OMN1pwKmDHC0Np3dvG9MNCO4diToxmpgaSX4rwm5ZxiyfND599VGef2cfqhvvY94wZ8OzCg6zZdkaPkszNjrpeXsHG6qrKg3X5hCEUG5/cRtbtjY5HhiB4mJH4le4/LtNWcBo2yO89fRK1q7fxCH9IOZM7mlyNY/C9ybuWRhF+Q//x3Mv/Jfy/jfip8vjXKHR3SpoLg/cFcqZL1/m6Sdf4rvCMO6YewP2hvzJ44f/Wy6W75scqSpj/+YHDGW9ZtUaPj5h9C/RzU/MjDQtsRZ0/HVUluZSKtYBbVkeBcWiUlJ2wC+0M2rJUSWeRwyif29vhOJ8yvXe9Js4DF8KyS1W0HngePp4qqhuGEaJBr11gPjcZKLEgYR5tGi1OnRiVRKqdNRK5yYXqV34zBxCsEu+WC57+H17Mtoefek5yNb0hBGXEBeKRat/746T1AT3pNcwg/RmkbLWY/IQQl1yOP7mz/z+/km0EQPoPbh+EOM2OooAm7NEv/4ju/99kCx9Z8JHdDI6norl15d+4udPs9BWnCH6xR/5WTx2v5+OmB0Wy98iZsJX1BaQ9GUm9sN64uciXgeHEda9jBOfp1EjKUgz/o20nP+NKNJyPF9FqL/puiEqN1zVSuxcXZGX+/31uTTlrOrE4Bk34nPuBElF0shOx6GNi1j6zA72xaeSnihWwNgK/IMCDY8rqgrJyswgs0AjNpgKCjPSOSNen8ktQ2gwyss99AU/JaSSGv1fdsZU0zWguZp4Iebir8MqZQ+fHEwWR7n7+HDnUWzFxtTF4OJLZA8PEr7fyt7EdNLjd/GfT36iADdjD2KiNflqxA4yJyeH3PL6ZlfPCWLiKgjvE4W1YTDQhahId5JjDhktY3wI7+4uxv8u+5LTSY35jM/3awiN6G703gQr38lM6l3Mnp9jTXfMcZqvXljL4481Od4/2Cj/LeZPKH9nJ9GazE4kPjWLsynRfPLcPazcbmn6IWDYcHwS/seWb4+RevoQX0VnY58nlplYvFIR9xozCqvf3uWj/SfISE/gR9FqV7m5Iw2PFAo95Xk5nKuwxdk2lzNJ5wxlnZNTQEXdTIiIk2j5VlbW1xdzKBQClXlpFIh+qgvFPDlbYrSmGqLUkLbvV+JOpFIouOKsLCT9xCkyTx9n33dfczRXS1VBen0YUp7qT7Pvf//jYKb5CWqFIo9jj/zC6VIFivgj7Nx0+rzVJsmX/f7XfL8xjqxTJZSmpJF2QoerX+NBryY2ibRTpZQkJnNCLDdXvw6N2k3LONOpm4pze+LIySijJDlV9F+Be7eOJnewFQehupw8crPK0GTkcGLzTn76PM/gpqiuRpNdSlmJVrRAa6gU869cvC4vFNugmAZL5W8Jc+FLaOOOk5DiRujEYEKn+lHzawypRvEs8t9a/jdGoFxU4Gr1hW6Kwp1seHAFD63dxqlm/cr8lbgo5Rxxx1aDxfXWm6+woNtZPt3yyfl3q269b+Mh0aLZ+JbRKls+3A2lqm0LfDTl9XZURWU1KlsLR7gilsRfXVl+Xhnokn/mo10xJsvNCUe1loqyesWa98c2Nu1MOt+IJC5WPimIhCPHqA3vS7hkzHj1I9IzhaOHS40PiPGrHcT4NWIjNlGmqcBO7WRQ5g0R1D258/5pKHe9yReplikChUJLSbaoDCWF2PDIrzA9YRl/Zvkn7NtL9cBlPP/0Iyxd+Dcm9O2MjUUKQNITtgT6e4lKPcE0GAJrpRIKcjlnuPIkoIsjnuMeN8guHW/eFQWlJaKN2gBvTzy0op9GN+tpUFXaj5oSSuqKqSqVuCQF4VNvZszIoYR4ihZmM1kgKSVdpeZCRX8R2ISFM+ihSUx8ZhpTnp3GoIF2xrxrgE5Tb+vVVNVgZau0cO5AhdLGms63TzeELR03jnDCSiU2ElPZ5kenUxs1iLEPDqfvLREERFzYJlrDEvkvBaltZX4eR3nPnnSzSyP2p5LLVBFaR1t8joIKy/NF5urlopTzya8eFS2uf7HuoUXcs+I5vk0xKjPBug+3LBqN8vAWXnjCaJW9d0ispFeIi4lfUXicH76NIe8KNSR93GHiFb2I6qGgQ79e+KYeoa1ZJCj9uGn5/fTMfJtXP01uYYR9Ie01rf1nln9V7DusW/McH+9NpMSmG2PveZqVUzubXM3hjYe7nvw8k0kj4tXRg+K8bFMe+tLJI5/fNptmFAzHGta+9RvaBnls4+OJa76onFvIMmk9TxtmtNuMtOAw9/gP7PzsW6JPFuLaazLDQi7fRKZg5Un43EAUsUfY99pufnl1N8eOVZtc2wsd2Z8bw5aOX1/5id3/yzqv4GqTj/PLht/FwW0e1aoOBP1tFINGORnczHFl5Bc7UycH7PS16O3tsbfcnmgz1tKYRf6Bt2uei1LO1cVnRIsrk+z8JqNy9y74qNM4+O0RTmdkkCkemtrmrKbLNLKzOP6WKENTocLBqb5led6wkGXTwkWR20lm3TGi422IjOpDn4gg0o8doPh8HpriV9fL7KR2oEpTdj6fBTwYdu9Kxum+4KXNeylqmP9maZ9p7T+r/KUiUNo7YlUYz75vP2H7xsd4cec5AiMiDGsGGqJ09sDlgg5SmhmpobrSOM0rCC4E+rmJyjrbcI3CEXv7CgrSjdPtmRnnqLCyRtdw4ZSIt0dHyMshx3TdlKKyWhxdrS6Qqb0Q1MEMHNIdta6UgswkUnK1OLu5Gdx0tTrsHYxKSxBscPfzx1V1iXK4uuBoX0z2r+cokaZnz5ag1V/4HluprrdEbexsDO9OjTqkGp1o9avUxrUWUraoxGdrNHUKUouuxgpFTalxulc8KkXrz7quzkvi24n1qCSfrF+TiNuxhz9+KadDaMfG1rN42mxKLZRfQqG2w6al/GopfBFBrFvdZgYh/LGf+MxOhN/kfaFl34p/y7HGw0WgqOTSQ5K5urn0BWENKcziXGUQQ2cMIrCrPxGjFjK2ezOVqKCIYnUQUX2D6NylK74d2mmYaWn8LZJFbEIB4eMXMLSHH/4RE5gzcxhqrWhpWaC8pAVRzh098fT0pJOj2BFZq3H38hKvO+KoNMohvZeNiYnHKWw6gwPPcuxgwy4+i/jEAsLGz2dwiB8BUTOYPkhNUlySwVXqbMNuXcUd/if56D8H0blLYYvxeThaNMXXXtPaLXLZy9+OYUs3sv7+afQK9MXLL5L+Ie5UFObRUH0KzqNZ/uL/8dKTtxPQKF9KKCu3o1uffrgobeg8fC5DfGvIr5ufFnIoKPSl33hR/i4B9Jx0H/9afQvdmsx+2kjT7M7eBPo2Lts6kpO0lAXbMta4jq/9KT9Dtj6EEdNmMH7aXG7olM3ROOPEfN7JRLRBE5k+qjt2Vj50HzSEkI7NKyKLKREVZpUbncf54uLtjMegKAKCTG4NUEd0xz/IGZceIYT2tqUoo1Csc9I732ryTpXhNiiCzoHOoqUfQbceevJPFpl8lpJ7soZOI3rhG+CEc5AfPe8ZRUTPuoGdEr87JjFqXgidujri4NMRnwAHaoqkVegNKK6k2sEd7whXHEU51S6m7s1C+QW1HwP/NZFxD0Y2/413S+GLqEf0IVidQeyuHNK+PEFVz970CG7Svbbi31JUoTYMttdyJNl0owGC4MWEFRt4auk43CzoD2Subi7qUyq31M/5I+3CeRWF/iypOS5EjZ3OlHHDCFLGsC/Vl3CbuMaf+pRkUuw8kImzZzFx7DiGuqWa3C8M36PXJAbbHrPoUyFL4veMmko/q8PsjDZ2Zg2R9G/+ySSqAoYzZeoMRvX3pezwe7zzWVKjT6lali+UW9c/w8KpExkV3lE0xIIYMnYCo8cMwi7xG47nGxV8bb4NITePI7TgV3Z8Hnf+kwfpX15yMtrgkUy9aRojenmQv+ct3v023fSOVLSa59xMmHdnokZOYIwYtnSM7m3N0R+ON7DALxd/bvlLA5vMtAJ8Bk5hipg/44dF4V60lx3bd5Jt+hTOgLIjkTf0oUNxDL/sOdEgf0vIq/Jn+E2zmD5tPN1LMyjpas+Zr3eRVCYpkQLSs+2IHDOTqRNuJMzxDD9s2czu7MbrZkvKlYQMn8xNU6Ywdmwk2j9+IKm8Pn59ro7acDWLegrsj9ZRqG9cLk0/paqjNOMY6UXGTlWhyyM1IQONKHvDc4ObmA8lZ06QnHyas2nxxCWkUmISUag4x+nERE5l5KMVismMj+dMaa3op7EMEo0+pWoFhVAuGq02eA4NI2SYHx2U2eKgzomOqlzTp1Aq3IcEo0hKRTWsP+ED3ak9Gcfxb3KpNrQbqErLp9rHj5BxogLvZkPJ70eI21+OXkqf+EjF6QJq/QMJHd+dgEgXauKOcey7AtGmltz1YnorcOodQsjoUIL6++Agll3c5yloqhukq0y0uB07021iD7oNC6Krc7FBPvPym1Cq6dTfG/sSUcEeFONummcthC+4+NHv9i6UfvEHKWfFelteSJk6kMhh9uQeyDmfBy35txRrVxX/WqzGdX8Zzx0VDHnXCIeBzLxrBHZHPmBnkuXhylydyLtSyVx/2LnR0VZDnu1EHl/fje/+8Tx/NFht3R4Idlbcfa8Ld3rXsv3fJWxNqQ/fydm5xV8Ju1LoBb2oK+oWIl4axu+cx9Nh3xcc2H/hoE3m0vEerOb1ubZUHSjj/g9qKGhmUYPQ8x+8sSKAXatW8WVO+9ZnmSvPn9tDyMhcYWxcOuHpYoOVvQ99JwyhY9JR4usXx7cbiio9W18s5LatVZxsYqDqdH/+b29dDhkUcndy2dAVaXljQyF/29G8YpbwDQ7EIe0P/rhwUlDmL4jcmmSuG6Rfqhp93ys8u+EV1j+9lrm+J9j67o+UNjPl2x5IU8lnk2rYk9U4fMN+yn/ifJUUtySDzF+HPLEe/Sy9+WmhrkrrUYIDvEk59PsV+/JE5vIiT2vLyPwJSPspS9s2KpXKK7ans17Uyjqdzjg40MvTzzIyVzOycpaRkZGRkbnKkKe1ZWRkZGRkrjJk5SwjIyMjI3OVIStnGRkZGRmZqwxZOcvIyMjIyFxlyMpZRkZGRkbmKkNWzjIyMjIyMlcZsnKWkblGUXVSsXiRMw/0urq+lpQ2iOkx42Eevnckna7wr7EEj3Pk5bm2hDvIX5DKXN20ceMLsWHZBTBu4QruvWseMyePINKzgtNxaZQ1+XH/a5E+i7fyzH23Mn3GbKZND6Hom99IvwzpFnovZtPaPqR9c7jdf+1HcIlk5j0P8vd5dzBt7BCCHXNJij9H9XXyq0LXS/117GbH5hVqOpys5KPDteQ23CDiMiEInsx8aguThC+b3RilHhWBN85mqE8eh3fHt+uGLebqd4VGwKe3PStvUnEuppqUyuuj3sv89Wiz5Rw6azk3d83is9cfZf3GnZSGL2TxFD+T67VN7AerWb3yAVa/8F2Le/lezUg/X3nj3csYaXeY959/hBd2HEE9chl3jXA1PXHtcz3UX0GlZPlCBzRfF7Pko2piS68uBSRtIXlw81Lue+Rj0tpTMVtQv6vOaXlzUwlPnFKxZr7dFbfcZWQspU2Ws7Q5/aDpt6D87Wn+czCPkrwUThWrCXQoJPpErmHDfsHOnzELlrNkwXxmThpOmHspp+IyTVsuimGoQ5my6AEWzbuTWZNGiO7FJB8/QwWiX9PIe7J7GX1uX8XdN0+kb2cNJ6JTKRf9m3M3hG8XyIS/P8SShfOYNXEY3V0KSYzLosr0Y/GRCzbzyGB7bEYvZtmdsxgR4UZ+/FHONdxysAX01RVoNBrKld0YOdqdlK8utJzNxd9a/gh9lrB5/XJmD/ZHZRvAENFCN1jpvbTs+SXJsG2kYB8khv8g986/k+kThhLimCdaBtmmLSXNpE8Ryfi5fiS89Sq7U0soOhtPvsc4pnQ+03hLx8uEINhx56IxzHGuZvD4/jw40p+hHWuIPVlKaV35qZyYeVNf1k0NZ/4gXyLVFRw/rTHUD/8bh/BKSCmfpQjMuWssa7wK+PRkFRNuGc2MmtPsK2xcFk25XuqveoADj4VqeXxLDTlNlF9r8kuYC7/1/DFu+dmhrKTF9A1cso2nlt5irNcDrDn4YxzlJhmFoDt48fnxaHbtJbNul7Cwu3ll/WhKvt3LGbGttVr/Lazf0qOpqQLD59iiPlxNtMYUlwnBaTBLX3iGu/rrOSq2u7otR2VkriRttJxLyc4pp3PPoXipjCPOooPv88ZX8dSKFVgQG2DozcuZ459ttEw2fUdl78UsmuBleFZ61zRg3j+Z6JrE55ueYP0b36AR3eeNamy5+Ud0JnH7Mzz35s9oey7gjiaWXUvuUvzhc1cw1S2WHRvW8sy/v6ey3xIWju5gcK9DFRqC6qfXeHbD2xyzH8ndtw3Grh1G0ObiN5c/JHzIk+tWs27bYarKD/D22lWsE49HNu2m2ODfirBbljHLJ41PX32U59/Zh+rG+5g3rPGu/i2lT8Fhtixbw2dpxs5GCs/ewYZqCzdBEIRQbn9xG1u2NjkeGIGiDfkXHODE8e8OsPKLDGqCI7i3l43hvhREnzF9uc25gI07fufBz1KpCu3Nij62BvczhRV0cLEXK60ab30FNS4O2OCAl1slWfmGR8xwfdTfbn4qSNMSa1K4dVgqf0vhm62/Jvwju5L0/noxfb+i69U4/THb/2mYfVr7cYLpTgNOHeRoaTi9exvrg0Rw70jUidHE1Ejyt17/21S/i7Qcz1cR6m+6bojKDVe1EjtXV+xNt2RkrjRtUs4KhUD0J1uJ7XgbT7zwLMvmT6OvT8ON40VLp4cHCd9vZW9iOunxu/jPJz9RgJvUUkT/Og5tXMTSZ3awLz6V9MQf2R1bgX9QoMm/kZxDX/BzYhqp0Z+w82gNXQMat6CW3bsSEeZI7HcfcCQlg7TY7/nyjzxCwnqY3I1Ypezhk4PJpJ/ax4c7j2IbHEYXk9ulYS5+M/lTVUhWZgaZBRrxsoLCjHTOiNdncssMVh34EN7dXfT/LvuS00mN+YzP92sIjehuDN6Epemz8p3MpN7F7Pk51nTHHKf56oW1PP5Yk+P9gyb5LCM7MYWv0stJPpnCx8l6gn3rBheO9PNXcXj/Cfae1XAyNZP34yuJ8DcqJ21BJcXO9niq1HSqLCBR/N9FUs4OGjKl0YsZrpf662SvoLLywsGSpfK3HH7r+VNHrpi+nxJSxfT9l50x1Y3SX1OaS05ODrnlora9gBPExFUQ3icKa8NgoAtRke4kxxwyzQxZVv/raL1+C5SLOlutvrDeKgp3suHBFTy0dhun2lCvZWTakza/c1YUHuDNf93H+h17yXUcxPxHn+SWHnUjXScc1VoqyuobXt4f29i0M0nqGQzXbr1v46H1m9j4ltHqWj7cDaVKHOk3oEJTvwl8ZWUVKluj5VRHy+4O2NvaMODe7eetunUTfbC2sTM09jqqK8vPKxNd8s98tCvGYJleOubiN58/reOE2kH0r6nfgLhMU4Gd2qnN6RPUPbnz/mkod73JF6kXduTNoVBoKckWBwvSgKHhkV9hesIyyqvq019Ro8NGaW26UmGnsmb4zAl8tXq84Xh1kKNYP6yN6SuoINvZAW8PB6xL8sgQ89tX7YBnZQVnLEvCdVF/W6tKlsjfcviW1V9Neb00FZXVF6S/JaQgEo4coza8L+FSlfDqR6RnCkcP1+WXZfVf4mLqd0O0xefE6tZ2fzIy7cVFfUql0JeRevBrPnjtYZ7/QWDc1BE4NGkczSFY9+GWRaNRHt7CC08Yra73DpWYXNuLCqJ3NLTs1vDIe/sN05bNoSg8zg/fxrTjqui2xX+5aS59gtKPm5bfT8/Mt3n102R0FsrWXtParaNl3/d7uf/tuuN37v0ux5h/VRrOYUdnLwdqC4s4W26Db4A97kUazph8W8K1Xn9rpYXSzTx+MfK3f/toHX3cYeIVvYjqoaBDv174ph6hrVlsaf22FgcAgrxzpsxVSpuUs0Aks9c8wGhvY0cmTRNmZeegcHHBODFZhqZChYNT/UjZ84aFLJsWLnoW/bh3wUedxsFvj3A6I4NM8dDUNh61XxoVVFbbYlV15rxVl6sR7TGrdu5YWuzIzcVvJn/O01L4Jv/q+jxzEi3HKk2ZxcpfwINh965knO4LXtq8l6I2dbrtM63dMlqqtEqU2nJSc41HdpWA6nzQ5ZwtcSDc35q8ghqyRAOti6icdYXlFg0wrpf6W1RWi6Or1YXrKC5Zfkvr7yWgO0Z0vA2RUX3oExFE+rEDDT61Ml//La/f1ni4CBSVtJPcMjLtTNssZyFbbB69uWnezfQN7opfjxHMn9yT4pOJokUjkUVsQgHh4xcwtIcf/hETmDNzGGptntQTQmEW5yqDGDpjEIFd/YkYtZCx3duzcWQQl1BCxKQFDAnpStceo1iw+in+1k9tcm8nigooqvUn8oYAvDw98fR0x0EppcNc/Gbyp46CIorVQUT1DaJzl674dqjrDLOITywgbPx8Bof4ERA1g+mD1CTFJZncW0cQbAi7dRV3+J/ko/8cROfuJcouyu/heMG0YHO017R2y5RzOK2aPoPDGNNFTZCfLw/cPpR7QpUGV4VCVMhFSkJ8BM4WQGaRlpAuTuQUWBj/dVJ/k5O0lAXbMrbxOsF2kN/C+tsC0oI0545Se/Gkk6ONqB/VuHtJdbAjjob2IwWjIyYmHqew6QwOPMuxgw0/Wmy9/relfqtCbRhsr+VIsulGAwTBiwkrNvDU0nG4tdegQ0amjbRxQVg+329+hd+q+vG3FU+yZulMvNM/4PX/xBoap2SJJH3yMh9l+DBj6ROsvmc8djH/Zut3xgam0B3mo6270UYtZNW6h7ktKpcjx8oNbu2BFH/8f1/ms7NB3PzgUzy8dApOxzfy5s52/iq58nf+9/FJfGc/wTPPvcz65x5morf5+M3lz3kyvuOTn6vpd8+TPPnUc6yb28twW/Kf8PGrfHrWn9kPPM7Ku4ai+/U1tv1W/w6zddzoHuaLjftAFjz+Cs9uMB7rV05vpwVxl4bUv0f/HM22PFcWzL2BF2cF4XLqGBsO1K+2PVNUjbdTLVklUFNYiYObkrOF9e8gW+N6qb+6+EreTVex5C47gk2r0iUuVX6L62+LdGPG2pcNde6pm8NQeI3jQan+Pfc4M7qZHhGpiTnMiU7BBBbGcDjbdFPEfP23rH5bu6p4+A47ND9r+Lq55DuEExnRGc4mtHFmSUam/VB09QuUh4YyMtcYgp0Vd9/rwp3etWz/dwlbU2QlI+E9WM3rc22pOlDG/R/UUNDMy3mh5z94Y0UAu1at4sscOd9k/hwuakGYjIzM1Y2iSs/WFwu5bWsVJ6tMN2XQFWl5Y0Mhf9vRvGKW8A0OxCHtD/4wvuuQkflTkJWzjMw1ikKh4GxSDXuyZOuvjjwxP36Wfiyshelq6b11cIA3KYd+v2Ir1GVkmkOe1paRkZGRkbnKkC1nGRkZGRmZqwxZOcvIyMjIyFxlyNPaMjLXEOouXU1nMheDJjPDdCYj8+ciW84yMjIyMjJXGbLlLHNNorCyws7OHqVSidVfcNWtXhDQ6XRUVVUi6C3/AWjZcr40ZMtZ5mpBtpxlrjkkxezk6IyNSvWXVMwSktyS/FI6pPTIyMhcX8itXuaaQ7KYr5VPVKV0SOlpK0JYNbvWaIzH4mqC9JZNkAm29gy/wZ0xgXXbeDbGnLs5Lnf4EoKqhufq0r6mkjvc5MlBmb8esnK+DpE2IOgx42EevncknS7ih/0v1X97oeqkYvEiZx7o1VgG5fn9oa8NLio9VgLKMiVPbrHjnv+qSDfdNku1QMdwdyYNc8ajOYVuzt0clzt8Ca2Sl6V0v63ihBKs27mXCx7nyMtzbQl3uEj5ZGQsoE3Vts/irbzz3oeG4+131zC8wY/qtydC78VsfP3vhF+Gjl9wiWTGA8/x0qb32PjKBpbN7oXLVbLzjCB4MuPJD4z5+852Nr70NIsnh1q017CE5eVjjVMnH7y9PHAw3Wkbrfu/nOVXh2M3O95a40jP4ip+SjXdNGGlaN/eWKFyQCkquzqaXl9umqZHsPVn0POTiAgUsBk2nKmrI5qvw7UKzuZakVJkhc7CbScVVHH0lBY6OtPH3XSzAebczXG5w5dQiN3auXxrTuVbiaG1HXP5e+Z4NQmudry2zonxHa5cPZC5vmhTLxb7wWpWr3yA1S98R9v2ybk6EARnbrx7GSPtDvP+84/wwo4jqEcu464RrqYnrg5OfLySNWv+xWv/O43P9Ae5o1/9/rmtYWn5KBTVHNy8lPse+Zi0i5j/vVT/l4qgUrJ8oQOar4tZ8lE1saWXVwbfQbMZEmDctlKi6fUVR6dHkP5qQV+rF5WwHvG03UhJLKMEW3p2b36vZ3Pu5rjc4V8yZvK36pyWNzeV8MQpFWvm2/2ps0cy1y7WLq5uj5nOzaKvrkCj0VCu7MbI0e6kfPUb6frGHaNgF8iEvz/EkoXzmDVxGN1dCkmMyxJHsMbnBDt/xixYzpIF85k5aThh7qWcistEIygQ+ixh8/rlzB7sj8o2gCEzZjNdPKb10rLnlySqREUg2AeJ4T/IvfPvZPqEoYQ45pEUn21wk4hcsJlHBttjM3oxy+6cxYgIN/Ljj3KuSnRXRDJ+rh8Jb73K7tQSis7Gk+8xjimdz/D1IekHd1tHELpy87ObGFv9GQcyjA0y9I7XefqG/PP+BedezFm+isXz7uDmaRMZEt6BooSjZFfWpb+1/HGkx6gJOJ94nx/jishLj6HUZxoTvNPZecS4d15r/i0pn4FLtvHU0luM+TrAmoM/xlFuyjuhx128smIw7n0XsXiSM5mlA1m5bjEDbJPZm5CPID7Xqn9Lys9M/Wi1/EyoBzjwWKiWx7fUkGOKuyF2dnams3oEay+6hXVAW+1GUM8wurg7UFtWRIXO1LHautM1uDuBwYF4OOgoLSxDJ8rkEtCf7l064aS2wUFZS41zd0K71l/nF5Shxw6PoAhCggPo6ATlhSVoRb91cer1nejWMwibslo6BbtTU+NCQHgP/Do6UFNcSKXY8wuCNWp3N6yrKgzxNqW6uoENqFfjPcqdyt9Pk6f2IdSnglMHCtCJeWHj4mJ8ppOO+X4Kvjpk3ey2h4KNKxHzexAWLJAXV462wTNCiR6PSBfCXWuJiRHrVBP/rbkLekcWPuTPLJdaaiO8+McEdwZ2VnAupYJC0ZI3PHNJ4SuZMC+YJb0UlDm5cdcMT8ZG2GGTr+FUaRMlaaVn3DA9eYeUHDW1v4Y4/e0lfNyjKU6r3w9cW1rSav7WIZ2mpgoMn2OL+nA10ZomaXAazNIXnuGu/nqOinW/rEkaZWTM0a7zf4KoYMPnrmCqWyw7NqzlmX9/T2W/JSwc3eG8e+jNy5njn81nrz/K+k3fUdl7MYsmeBncSfiQJ9etZt22w1SVH+DttatYJx6PbNpNscG/FWG3LGOWTxqfvvooz7+zD9WN9zFvWONd5VWhIah+eo1nN7zNMfuR3H3bYOzE0a2Cw2xZtobP0owNRQrP3sGG6qr6/YIvlW5TFjDa9ghvPb2Stes3cUg/iDmTexrczOVPU6T2XFxahr2dcbP9tvpvjpjt/zRY12s/TjDdaYKbOJj4/DV+049lbkQCG/+bgOfYMUSanFv1b7b8LJO/pfKro5ufaFGlaYltRom1iKoDfuH9GdSvC/qCHEqsuzBAHBx2sRUtJCsf+k0cS7CrjuLcImwChjOip3FOtbo0l9IasdMuy6OgRENVk+tawZYuw6bSv7M1pXl5aN37MWZEqFFeKc6IQfTv7Y1QnC8qGel6AAOjuqAoK0bn0YsRI8KNry2s/UUZJhPla8n7ZS1arQ6dWG2FKh210rnJxWJslNjaWWHlqKJpjAqrKmJOmqaWPUw3G2DOXcI6wJU+ikqScgQ6+Htw61B7UekZy7A9wsfRmSF+taScrqLWxZFxk90JVjRRzheNhflbpOV4vopQf9N1Q1RuuKqV2Lm60vblfDIy7aycoSsRYY7EfvcBR1IySIv9ni//yCMkrIfJ3ZfIHh4kfL+VvYnppMfv4j+f/EQBblLPjaKqkKzMDDILNOKlONLOSOeMeH0mt8xgtYEP4d3dRf/vsi85ndSYz/h8v4bQiO7G4E1Ypezhk4PJpJ/ax4c7j2IbLFpKJreGWPlOZlLvYvb8HGu6c+k4O6mpzE4kPjWLsynRfPLcPazcXhe+ufwxx6X6hxpRueTk5JBbLmqY5qjI5MSJWGJTKinOiCblUCJn7dU4mnrw1vybLz/L5DdXfk72CiorL6IjVqkojNvDidMppMT8TGxeF3qEiHWvNpvju77k1/3HRWsokZiEbNQ+nbEX62RVQToFYlzVhWJaxHRUFmY0uhY6RBDpmc2RPUdITUshad8BznaIJFgM1oBSQ9q+X4k7kUphtZgHyhqyDv9O0skkju09TqGHD57SDHntafb9738czDQ/Qa1Q5HHskV84XapAEX+EnZtON7LqLEFRnk/M23Hs25FJWTPvo1OSysQBlQ09u9uY7jTGnLtNYRFbPj3Hex9mc6gcXH3saPjy6FLDx1rDtx9k8/4XmXyUKOaZo4M4uDK5XSKW569AuajA1eoL3RSFO9nw4AoeWruNU20sGxkZiXZWzg7Y29ow4N7tbNm6zXCsm+iDtY0d1gbLxwlHtZaKsvqOPe+PbWzamSS1CNOd1nBC7SD614ijahNlmgrs1E6m8I1UV5ablAHokn/mo10xBsutIYK6J3fePw3lrjf5IrW9Rtyi8bhvL9UDl/H804+wdOHfmNC3MzbnZTOXP+a4VP8Xi0LMT9PpJWGZ/ObK76L7On0OObnGU4VCz7nsPJxFy0ZKn42rH2GDxzJ68iwm9vNBISpyS94qK9zccBIt76hJ0xg76SbGTRqAl9IJF5e60UwJJfWzpuJ1EYVlpvOqMjQ1KmnMIMojiJaaaIlfwY5cqKymuqaF+LLKiCsFrxAnPJtbNW3GXVemo1xS+notxVL6VdaNLchLDJ9yHYWiTlaIcZxJKSYmUSMO8s0jeIzD77HnCREPn1CwHbnScB7y8K04NBfPJaAtPkdBRfuGKXP90M7KWaKC6B1refyxumMNj7y3/4p2Og1RFB7nh29jGu3NKij9uGn5/fTMfJtXP01us9XRGlWx77BuzXN8vDeREptujL3naVZO7WxylWh7/kiLU+q5uvK37bRN/ubKT1qj05YZ7fNYqcXBnelcxNHJEW2NOFD06MfIoX7UZkSz97vP+Oa30xav8hW0NdQWxvPbT9+zx3B8xw+ff8j+jJYs4L9GZ62wqiYmWRwEezgR1ezUc+vu5mjP8EuSC9j+TT6HiiyoFIV7yXrjBdLEIzdVHCsdesdwnvbmN1zMyy1rcQwmWP4DbjIyFnNxyrlFK62CympbrKrOGKczxSNXIw6az0+biZZChQoHp/rVx543LGTZtPAmYbYUvsm/un4Vp5PY21ZpyixWTgIeDLt3JeN0X/DS5r3NLpaRUDp74HLBIukSKqVpLCcnw5UksqOTA5oyoykkXSvtHbESO+t9337C9o2P8eLOcwRGRJjemZrLn8ZIXlydnagSLSojFvpvlJd/Bi3F37b0t0RRWS2OrlaN3kNbhjudA4yvUASVFwGdVeSczcXK0QHbsrOkZRVQqbPCM6grxrf8RnS1OuwdjGUu0eg6J5NzLgH429dSXV0tKvVOdB8QjnsbF3NLm/y7+/njepk+T7wYThumlm3p1cLUsjl3c1zu8JtDodegy8uhRjx04rhMKM8znNfklyK0sR6KqhkPF4GikqunzGSuHS5OORcVUFTrT+QNAXh5euLp6Y6DUqqgGcQllBAxaQFDQrrStccoFqx+ir/1q+vqsohNKCB8/AKG9vDDP2ICc2YOQ63NE1tNg4ZRUESxOoiovkF07tIV3w51WjKL+MQCwsbPZ3CIHwFRM5g+SE1SXJLJvXWkDjDs1lXc4X+Sj/5zEJ27lyi7KL+HY6NpVcF5NMtf/D9eevJ2AhrcVyhKiIs/Q8DI2xnW3Z+gAbczuVcNSfEppifsGLZ0I+vvn0avQF+8/CLpH+JORWGeyRIzlz9GbBxFuby6Ejbsbqb30xMbHW9yscx/S+Uj/XiIc0fp2pNOjmKHZ63G3UvKg444GsqvdSz232L5WSi/GZKTtJQF2zK28TpA89RkkO8wnMk3zWTKtBG4nv2dmAwt+sx4EnQ9GDd9OuMmT6KbdRF1wyGJvJOJaIMmMn1Ud8OAoOG1fU0qh/fn4HXjLCZPmcGUif1wzk8nr4VX+i1i7Uv3QUMI6WjJgrBLR9Db4js1nAGTPLBpaTr3bBnHS8QBdHcnvJp7xpy7OS53+JcZVagNg+21HEk23WiAIHgxYcUGnlo6Drc2DyJlZMQuoS2fUp1He4ZzNSGMmDGXaZMmMWZsFMKh70kshdwTJ9AFj+GmGdMZ1a8zmiPv8vanSWJnpzDo3/yTSVQFDGfK1BmM6u9L2eH3eOcz0b3hS82STIqdBzJx9iwmjh3HULdUw6dKkv+85GS0wSOZetM0RvTyIH/PW7z7bfr5T6k8o6bSz+owO6PPGa4bI1rNc24mzLszUSMniHIbj9G9rTn6w3GK6wYIyo6iYutDh+IYftlzotFnEMWnTlDuN0yMfzo3RqjJ2PUm7+/OpkZ8RqHQkZlWgM/AKUwR5Rs/LAr3or3s2L6T7Cpj+lvLn7pPqYYOGcfo0SPoG6ji9M5NbPslx/Cpi3n/Jloon4SS7ty6/hkWTp3IqPCOKByDGCKlf8wg7BK/4RhRTOgjcPD7Y6iiptCt5Hv2ZvkzbLIX6V/+Toa+df/H800ytFJ+5uRvvfyM6HN11IarWdRTYH+0jsImn4s19ymVVKaBobak7PqR4+nSYsSjnMwqMcy4KIQKclMSOZWRSUZSLGmZqSQnG8tUQqg4x+lEyT0fabVD0+ta0epOTUrgdEYKJ+PiSM+vNAw2Fbo8UhMyzn8KdMG1ooyshJMU6CQZismMj+dMaa14v3F6JBp9StUKln5KhcqFwLEdUZ7MIuNs81PwCkUtlc7ODAqypSK5mFNNPkdq1l0cAPcZ6oR7fhk/SiuuBSuCe7sRbFXJvpiK85/dSVxc+C2HdwFmPqWqif2+0WdUEoZPqSzA2lXFvxarcd1fxnNHBfRN5XAYyMy7RmB35AN2JtUtMpCRsRx5VyqZvySCnRV33+vCnd61bP93CVtT6jtHJ7FDv+BXtezCGDO1A7Ef/UZuax36VYhe0FNWKo58LaBuVyohoord0/XU1goIRUru2WhDSoNpW6GLH8NniIPLd+NJb+VHXAQvd9bd7o5ufyrP/i4NRRpjzt0clyN86be1N/xTKw41Rf2stOL9jXa8W2BZmVuyK5X3YDWvz7Wl6kAZ939QQ0EzCyCEnv/gjRUB7Fq1ii9z/lr1Tebq4OIsZxmZPxmFTiB6XyU/ZIoXFbWkl9V3gNbWSvFoMj0sKji9rpzi/NJGP7jxV0Cr06HTWqaYzlvOxVbsjbXm62gl34j/00XLsaF1pw71xc+mgMTD5a2v1yjV0yHclfAOeo4facZSNedujssRvl5BXJKSXWLavz6sJLpQQXUzCrQ5LLGc7R0VpO8u58W9omXfgjy+Q29hvO0fvPN1EhVtzRMZGRHZcpa55qjbMvJa6BOl15Vl5aXi2MKyJcGW7OcsrS72nhaFT2Ys0Ufb/PMl1zTtsZ+ztLblxn++xbCk5Tz9jSUfeMnIXIisnGWuSSQFLW21qFQq/5J7OutFrawTLeaqqkqLFbOEJcpZpmXaQznLyLQHsnKWkbmGkJXzpSErZ5mrhcvwIyQyMjIyMjIyFw/8P7OFNvsGvcLlAAAAAElFTkSuQmCC;" parent="WIyWlLk6GJQsqaUBKTNV-1" vertex="1">
          <mxGeometry x="300" y="930" width="487" height="64" as="geometry" />
        </mxCell>
        <mxCell id="4N3UYrN6VFZyfdFpkZMw-23" value="" style="shape=image;verticalLabelPosition=bottom;labelBackgroundColor=default;verticalAlign=top;aspect=fixed;imageAspect=0;image=data:image/png,iVBORw0KGgoAAAANSUhEUgAAAXgAAABNCAYAAACsXX8MAAAAAXNSR0IArs4c6QAAAARnQU1BAACxjwv8YQUAAAAJcEhZcwAADsMAAA7DAcdvqGQAADLYSURBVHhe7Z0HfBRV/sC/m+wmm2wqCamQ3kghhCLNINKriOXk7Hh4h8rdKZ4FFc+z19P7e4oNG5aznZ4FFUFUeg0hPRDSCOl103ez85/Z3ZCe3UDo881nPpmZN6+/95vfe/P2/RQBgSECnRCEIcQsvBq37HVsz24037UOQXAidOYSIoQkDiTn0mQzlOBxU/AqXc+GPUdBoTA95zqW6XODKd+ymdx6A7TWUd+kN7oNHXcTY2028/2uAuN1ZwRBgZ3GCTsxGEXgVKaHVLN9czKNCLQ2aWltcyFy3rW4Z7/JrhwxXJEhY65nkt1Wvt2RJ/oHr/E3MsE9k62/7EHrGM+YS8YwpPinXuPrjmATyNjFM3E8somU3DpsPWKIiAvFo3SzMfxTjSCoCJq2lCjDbg6k5KI1ODNszExC6zexfme++IQCj7HXMtmnmKQ9B9EqfImYOBH7rP+wNUNrCkREsI9i0qJLGNqUzK9f76C2vV4EZ4vl5znueiZ65Yvhp4nhexE2PhHNof+wJdMUvmbEIi6NrGbX179S5jSaS+ZGU735Y1LKTOFJ9Ff/QuBMFiW0sXfzAeqMdyT0tGpraWmzOen6t5R+I95TmDPFidSvv+Noi6lsuqPwupgZl7qS9dW3FHR7RhBcCJ06hyB9Ktu3ptFsLl8ZmdONraub+yPmcxPuIxk1wkDB7lRq9ANrmApFK1Ul5dj5xhIZnUBw4FCE0r0k7TtMsyicj9NcRbM6hIj4cURExRKgLiP7aI3RSeM/Cj9FHoeLao3XXfEhdsHVjI0bSYiPCwp7LwKixPPIUJSlyZQ22OMZHodD5X6Kqk3vLQe/kQy3LTCGL/WzhmotTmETGTlqLGF+TVRUOuFi6Cu+riiEWmrq1PhEjSUyMgIP23wKK93wsj16PP2nEoXCQG2VFuegeCJjxhAWGohj02EO7jtIg1hXUv4ay4tpHRJBlOgeEuBGS8FWDhwsQScK/+PYOOEVGoxDUwG5OaLbcQFkufway4ppE19sI0aK4Q93p7VwK0kppvAFhyjGTg6nbu8PHK5pE+u5FK1dNCOjNJTmFNLS3gb6qX/cQokKCWNYRCwhETHGIzh8GEJBKuXNJ1///aW/HaG+EoPveKL99ZQUltLaue1KOAQy6uKLsM/dzMGjDVLFmB3MqIIZMT4K5dFdHC5rNt+UkTn99NDg3RKWkDjkID9sTOvU8c8vpJGAvcYRQ3M97mNuZiyb+F4aYcjImBFshxJxyVwiXerI2volhypMfcEhaBqTxwShz9vI9r35tPbSRwTfS5g3dSiHv/6MQw3nZx+SOTewMf83IghDGRbgQkV+znkt3O2cnFApbLB3DsBnqD3a+lOvfcucWyjaysne9AGbtmdSpzPfFGlrLCR14wds7kO4Szh5DsWuKoej9eYbMjJniB4a/PmOIPgz6soFBKsVGNqaqS85wP6tSdS0yZqWzMkjCDYEXrqMgNIP2ZrRYL4rI3NmuOAEvIyMjMyFQpcpGhkZGRmZ8wdZwMvIyMicp8gCXkZGRuY8RRbwMjIyMucp8kdWGZkTQGFjg1rtgFKpxOY0LSk2CAJ6vZ7m5iYEQ8cvg2Vk+kLW4GVkBogk3J2dXLBTqU6bcJeQ4pLilOKW0iAjYwm5lcjIDBBJcz+TvwOU4pbSICNjCVnAnwCCoGTE4gd44PZL8ZJ2sJI5L1F5qVh+qwt3xnetY6XS1nzWE6lt2NkrpRPznVNDf2k4W5F+RT5k9sVMui4Axwus34TNcuLFJfbEOJ7efHcR8ILgzeLHPuKd9z42Hm+9voYn/nY9CZ4DU1eEUct59d9/JKZbJbaHv3Kqynzn7ML69Nni7OWHr48njuY75wIXev12JuCq51i78lKUfQgap3A1b61yYmRNM5tyzTfN2Ch614tsvcYw48qrmD17Iv4e8cxYPIVhtgPr0AqVI0oby366p0GwD2LCc/OIDRGwS5zCwvtjcT3NQlSIHs3cR0bh0We8CuzdnXEeqsFSC/G4ch5zf+9jvhocLKevf477p6d/S+V/9GAL6W5qXl7tzOwhp69eem2pWZ/dy/333snqp99ir3IKty1fIGuqnVAoWtj9+gr+/PBn5J3JsfoJcqHXr5RVX28vqkqK0PdSf4JKyV3LHGn4toY7Pm0hpc66Oh4aFoVN1nd88/UWjlYf4cCuNEpMuyBbjf+Eq5gULI4ABoreIIod8a8NDG0GEA/x9KxC2g21+D/f8+NLGce3qD5vsFD+zSU63lhTy6OHVay6WX3a+luXVTSSBnbF4y8SvOkm/vmLaYclIeAann40ip/veISfGhQImkgW3HQ9l0QPw4Uajuz6D++s20m5tF3s6Dt4/S+Tse9WecKRj7n7kf9RhY8x/JDkd2kefRVxQ/QUH/iU19/YTInBugrvL36JuFte50/qjWx0SWR2iCP1uVv46LV3Sao2uQvqIGbcuJS58YE4CVWi/89478PtlIrxt+e/v/SNv+N9ll9k0j+Eoi95cNUnFJvzK4TewAurfPhyxbNsazbnJ/oPvLTSnU9ue44dOmlL3VDmLF3KrJhhOLSVc2jLh7zzaRI1p6HBnw31K7jEc83tN5EY6oVG0UR5zlY+ff1d9lVZl39prxefiTdzy9WTCHSoIemLPbjeEEfaygf5TgxD6jdeY6/lhiunEOmlpP5oEl++8Tpbj+mP5/+ygG7pF7T8+tytvJdmuu84wYkfFxm4fVUDKZ22EW7H1dXNfGZCmnrwCBtHzIgRODdmUiS+ODKydATEOFCcnEu90pfwKDsqSuwZHuZGTcpuCgU/QsMDcFM2UnE0l4JSLS4hFzEyJtoURmE+KVllqD3dMFRXdt1u20xtbccmeYIY3rino6l76Seyh01g4eRqfvpXlnEvekFwJOLu2XhkHqA5Khq/IVCfmc7+j49Qb96DSXAcQtjikQSFO2NPC1UHUkn+qogmc/6HXjWf0fZHOOIcQNhwO1qP5pP6UTKltWL4MWOZf/NwlN3bRUEKP/4r27gpm+8NixgXb5pWEkoy+Pm5dBo6PS+4eBF7XQLDh9mhy88mrzaECJskvv+4xOSudifkylGERjqj0jdRuTeZA9+V9rnhW2cspa9F6UncvYm47/+Z336Qtg23w/+m2Yy0S+HnN/NoiR1nMX/9lX9nBDd73n7anh1/r+Wt0m5uzhNZ8cRtxFR8wRP/+IoiK/JmCctz8C2t6MTHbEWZJs0vXnTT35jrlslXax7lqVe+o0Ecrt80zdzg0z/msdX3s/r9vTTX7+Lth+5jtXg8vGazKCo6CIoLIPODp3jmjV/Rx9/CDVO7dpi+sBi/GVVkBKpNL/P0s2+T7HApf7h2Imqx50sdMfLqu7gmqJgv//13nlrzA02i/1vndB0K9pe+pHV/M2q/D32Wbr7TicO7OVAXw6hRduYbEDYqDk3GfpJapfTbEP27v3KlXx5f/OvvPPfOdlSX/JmbEl3MT/ePIERy/Qvv8+babsedU1GcqEZwmus3fMEtTLffx1tP3MtDT61hj2EC18wfaXa1jML/Mm5blkD9T//HM89/Qv24SwjUl1NSZXK3CV3CnUsjOfr1izzx2D/5oSqaG5ZcjIOxfMr56f/uEuvvDfY1a9n5+p3Gulx13yo+yzL5lwgPFAsjT9ercO+Lproy6sQ61mnLqazRolcOITByGBrJUSWex05g3ChfhJoK6g2+jJ2biL/4SiyrUTBs/GxGe6to6RxGbQMG22Dxufkk+Fsz365Dp9Mjyj6EZj1t0rnZpR3XCFdqxNHFtg8P0Ro2kvhEY+qM/cLvikmEuVaI9fYbW9dloxsxhpET7I3u7diGeKDcvpttb+yn1D6IUQuHYSuV6+EUfv3nJn7+oghd41H2v7CRn8Vj8wf5iNkxUvbfn9j49A/8vL7cfKcDKX6f+eMIcijh4Ju/snenEs+wjlGM8QU6dzzR3tVkvPML2z8vwOai8cSP6+hn/WIhfYq2SjK/LsQhcSSBruJ1WDTRUVqyvsozvUCsyJ815W+kWsfBChWRQebrzqjccdMoUbu5MVif0PsX8CovJi6+BL+SLDKrpSGWnj2v3sqKJz9ke1ou+RliJlMaCQoNMT6uaK4SNY8CCisbxEpppKogn6Pi9dEyLUKnt1HZnv+xKT2X3P2fsD6phYDg3nLbE0vxt2OT8xuf784m//B2Pl5/AHuxwoYbXfyJG+FJ+o9r2ZaRT37aBv7z+SYqcZdakfEJif7S1yp2wtLSUsrqO6q2gyySUhuJGZ1gbPiCMJyEOA+yk/aY3+R+xER5iPG/y/bsfHKTvuSrnQ1ExkaZvFvkCN88/xD/eKTb8cHuLuVrNWegfl2cNTQVZ5CWW8SxnP18/sxt3LsuxexqmeDEKfil/5c3v08m98gevtlfjEO5WCdi9UlVGD9jGjZb3uXTnVkU5KezcX+u2G88xNGIlD8D9eWllDTa42JfxtHMEmNdlpZW0tjJuI2zg4Kmpo72YAmFQqCpPI9K0U9LlVgmx2pp614fygbytv9KalYuVYIbLsoq8rMOU3jkINt/+JYDZTqaK/M7wpDK1HCE7f/9L7sLLU+2KBTlJD/8C0fqFCjS9rF+zZEe008NKZnkHa6jNiObLLFe3AJFVV4sNCn9xR98y4+vplJ0uJa6nDzysvSie1fFSSHWd0ZyFXX5RaT+UoIqyNNUri0tNBTXoa0VR4WGVprE/NeL1/VVYh8xp6GtoZHGikYaGnoTe04MCVBRtuUgx/LqqElOI7+LgTQnhoapRfdkinLF9KdnkXVAh2eEh9m9f6xJny71IOk57kTODSNyYSCtvyaRa34X9fBf3NO/NeVvQqBefAloND3dFFXrefbuldzz0Psc7tXvwOlVwMfesNaoGb71xkvcEn6ML978/Phcs/uoa7lH1LxefcukPd41xR2lytInk640dNp/vbGpBZV9V02hP6yJv6Wp/rjA0Wf/zKcbkswapjNOGh2N2g7hXL7jfdaszzxeURInmj4piPR9ybTFjCFGUrp8xhLnncOBve3G55zROIrxN5imRyS0YsNXa5xNmpAFFAodtcWiQJWEaudD7DgD4UzWb/r2bbSM/yvPPfEwK5Zdx5wxw7CzIu8SgmBPSJCP+GJIPz70tVWKml5lGaaBvDfBw53wnvUPY9ql442lCVBXK+rKnfD1xlMn+ulys4NOTWHwaK2ltr2amnNJzVQYTWPOuHQyEd5qqd/3QBK8+qaGni+LE0TfSbi2NrdiY688Pkaxi45hwj3zmPvkIhY8vYgJ49Wmsu2EvrnleOEIeWIethQzOPaq7FDaGUTt2PTjLSkKXXPnl5odduoOd4nWplaUDmK7srLtWELqW4VfpVI/ciTh6jxSNtWeoobQP7qaEiobBydPEr0K+EPf/F3UDB9k9T23ctvKZ/g+xyQQBdvR/O7W6Sj3vsnzj5q0x/f2WDZ1N1icSPyKqoP89H0S5aepsgype0lTxJMwQsGQsfH45+5jsIposKZozmT9Nqe8w+pVz/DZtgxq7cKZedsT3CsO9a3DF08PAxXlHcN8n6Ge1JQXm7Ulf7w8K9jyunlkYzxW8dBbW7oYsLHz88atQhTwfRSZ9I1sALMzA0b6SF928CfWf/k9+w9V4RY/n8SIM7euXbDxJmZJCIqUfWx/eTO//GszycmiMO8HRU05eb+W0XQGhOCpwsbZEbWhDYODA9K741RhKyp/Qse76pTSq4BvqTkqaoaFFFd00x48huOnyWP39/s4UiAO1cWjoa037W7w3kBdsDr+vtDS0KjC0bmj9rwvXsZfF8VI0tN85yTRJ7M/zY64hNGMjg0lP3lXpw+o5vg1HWl21jjS3KC1UksbnCmaM1W/UhErHZywqUpj+/efs+7VR3hhfQkhsbHGbySdUbp44tqjk0kjsFZxhGbS7gTBlZBAd1HgFxuvUTjh4NBIZb5p6qiwoIRGG1v0LV31TF/PoeLQrZRS83V3qrVtOLnZ9EjTYCFowhg/KQqNvo7KwkxyynS4uLsb3fRtehwcnY3ngmCHR2AQbqrBSYdS06GR26ntjHPFRjnj5oqTQw3Fv5aII8Q6tMdq0RlOYJ29mMwTS6kOfasNKkeTOJKKXaXuHH+rOOLocJewc7ATRzcdI4p2FBo1dn2VVz/pE8S2FX5FKMKOnaQVehFzmW/PUXU//q3HFk9Xgerakw/JGnoV8H1SVURJUyiTF08gJCCI2GnLmBnVS0Irq6nRhJIwJpRhwwPwHzJIr0Nr4++TIlLSK4mZfQuTRwQSFDuHa65IRKMTNUIrBKT0EdJlqDfe3t54OdmJdaXBw8dHvB6Kk9KUDmkeOykpDefoy5kYcozk3Z3FSBFpGZVEz76ZiRGBBCcs5vIJGjJTM83u/TNYUzR9csrrV03iild56i+LiA/xxycwjnERHjRWlXcZ6gsu07nrhf/jn49dT3CXTlaLtl5N+OixuCrtGDZlCZP8W6lon2sRSqms8mfsbDH9w4MZOe/PPHj/7wjvturQTpoycvElxL9r3bWTnalDG2bPTOu+fQ+c+qMUGyKYumgxsxct4WKvYg6kmiaZyg9loAudy+XTolDb+BE1YRIRQ09A2PaCJjaKoFAXXEdEEDnKnuqCKrFNie2+to76ZneGzfLH1dcFzwkJBIeaPQ2EmiZaHD3wjXXDSQxH49ousBWo3B1x9HREI71kbFWoh2qM1yrj7wS0VBXo8EociV+QiziiiSUw2OjVjJbyw82iezx+wWL6oyPF9Ksoz640u5sQNIGMf3Aus+6O6/03AH2kT0IzdTRhmgJSNpSS93UWzSNHMSKsm3hs9x/T07+1qCLtmOigY1+2+UYnBMGHOSuf5fEVs3AfJOXC1tXN/RHzuYgTI6bNwT33K3bk9RxDKAzHyC11JWHm5SyYlUioMontuf7E2KXy7Z4i81MitYXUuIxn7lVXMnfmLCa755rde4bvGT+PifbJXf33gTXxeycsZKzNXtbvN3WYzkhtueJQJs3BU1iwcDHTxvmj3fse73yZSYPYCC2nL5LfP/UkyxbOZVrMUFFhDGXSzDlMnzEBdcZ3HDQbZm6rsCPi6llEVv7Kh1+lojW/PKR/5dnZ6MIuZeFli5ga70nFb2/x7vf5PZZTnRrObP1KL7/CvEr8xi9ggZj/2YkJeFRv48N16yluX1YqoRxK3MWjGVKTxC+/ZXUqv1rKm4OYctmVXL5oNlF1BdQGOHD02w1kahWieyX5xWriZlzBwjmXEO10lJ/efJ3NxV0/7NXWK4mYMp/LFixg5sw4dDt+IrO+I35DmZ62GA23jhTYuV9PVbclvGq12nzWlbqCZPKrTR1ToS8nN10cAYlp73xudBPLofZoFtnZRziWl0Zqei615iQKjSUcycjgcEEFOqGGwrQ0jta1iX66pkGipdvIpG9UeEwKQ5GZiypxHDHjPWg7lMrB78poEdu9QqinVmyz3pOjiUgMZIiyWFQcnBmqKuNQitYYgiY6Al+bY+Sk9WOGUFtHk9MwwueOIDwxlACXGrN/D2Lumc6YGeEEh2tELXsIAReHETx5GLaHDlFeA/UFtdiNCCdiWii+LpUUH3PFQ1HM4dR6Me/QKLYbfUAwkTMjCRqhoXHPPpJ/qes6AlVq8Brni0OtKKR3V/a0K91H+gTXQMZeP5y6/+0g55jYbuur0GpCiEt0oGxXqbGM+vNvLbZuKh78kwa3nVqeOSBg6J4+x/FcsXQq6n0fsT7T+nD7Q95NUubcQ+3OUPsGyu3n8o+nwvnhT8+xo9MqmMFAUNvwh9tdudG3jXWv1bI2pyN8ZxeXPn/NerowCAZR3rR/vO+f9nXwQ7b/j107e77YZU49vhM1/HuJPc27tPzlo1Yqe/nII4z8E6+sDGbDfffxdbc18ifKmW2lMjIDxM7VC29XO2wc/BgzZxJDMw+Q1rEoadBQNBtY+0IV165t5lA3RVmvt7xs8VRzImlQyN39jKGv1vHKs1Vc92Hvwl3CPywEx7wd7Og5+XDCyDUuc84gCC5M//NLPP3sSzz1xEMs8c9i7bsbqetl+mIwkKZFjmW28ltR1/CN+7GfwXGvFLeUBplzh3KxHf0szWL20ValD+phwb7k7Nk6qCv+5CkaGZkTQDb4IXMuIAt4GRkZmfMUeYpGRkZG5jxFFvAyMjIy5ymygJeRkZE5T5EFvIyMjMx5iizgZWRkZM5TZAEvIyMjc54iC3gZmbMUlZeK5be6cGf82bWSWdp0b8TiB3jg9ksH3bZo2CwnXlxiT4yjvHp7MOgh4AV1MDOXP8rzr7zLa6+8xKqlU/Drttve+cro5Wt5572Pjcfb765iyiBt09odYdRyXv33H4k5kz+HPEe5UNqnU7iat1Y5MbKmmU255punGMlm7eLHPmLlVEtbcNvi7OWHr48njuY7g8XRgy2ku6l5ebUzs4fI/eNk6SHgI6+8i6sDikw2S19dT13MMpYvCDS7nt+kfHS/0Ubn/c//0Ode4TJnlguhfQoqJXctc6Th2xru+LSFlLrT80tZa5EMlux+fQV/fviz45bABovmEh1vrKnl0cMqVt2sHvQRwoVGl1+ySgYU5j+8htgdt/LsRtO2oO4XXc+13km89nWqcWtOQR3EjBuXMjc+ECehiiO7PuO9D7dT2m41vz+r/Gar9n1Z3bfkbgxfHcKcW5YxO34YTvoKDm39mLc+3k21eQOfuFte50/qjWx0SWR2iCP1uVv46LV3Saq2viEKflfxxJPhbLj1SX7TdfVnKf7+ykcYfQev/2Uy9t06hXDkY+5+5H9US+XrEMqcpUuZFTMMh7ZyDm35kHc+TTpuNGQw8neiCIKaG2+dStThNBojIxjnbKDwUBbPfFPE0fb6UTlzxfxYrgp3wbmtidSDGby4scxY/0GXTOIRuzRu2tDENUuncVnJLq77vpo5v5tOXNJGnj/cfx4ulPbpOMGJHxcZuH1VQw/D3/2lX8JS+P22TyvyN/6O91l+kUnDF4q+5MFVn1BsbptC6A28sMqHL1c8y7b27Z+j/8BLK9355Lbn2CH2JUvtux3BzZ63n7Znx99reavbzoqC80RWPHEbMRVf8MQ/vqKom1+ZDrpp8HUUl9YzbORkfMzTE9W7P+CVb9JMnUdQEHn1XVwTVGzSoNb8QNOo5dw6x8f4rEWr/GaCYoeRse5JnnnjZ3Qju1rdl+jLXYo/ZslKFrqn8OGzD/Hkaz/SNPYOlk0fYnRvRyUKH9Wml3n62bdJdriUP1w7cVCs81iK31L5kP4xj62+n9Xv76W5fhdvP3Qfq8Xj4TWbjTZjBcGG6N/9lSv98vjiX3/nuXe2o7rkz9yU2NXyxInmb7BM/oUFO3Pwh13c+78CWsNiuT3eZN1eCmL0jDFc61LJqx9u5e4vc2mOHMXK0SaDIEerGhni6iA2Og2+hkZaXR2xEwf5Pu5NFFUYH7HAhdE+wwNFAZqn6yncrUx/X+FbbJ9mguICyPzgKTF/v6KP75r/pHV/M45yH/os3XynE4d3c6AuhlGjTO1BImxUHJqM/SS1Sum3rn0bqdZxsEJFZG/2+FXuuGmUqN3cOHOGDs8Nugh4ycjv/s/XkjL0Wh59/mn+evMixvh1Nm7gT9wIT9J/XMu2jHzy0zbwn883UYm7sXdbssrfTume//FzRh65+z9n/YHWLlb3Jfp2DyA22omUHz5iX04BeSk/8vWOciKiR5jdTdjk/Mbnu7PJP7ydj9cfwD4smuFmt5PDUvwWyqe5iiLJlFxlg3jZSFWBybSc0YK+UQvxIybKQ/T/Ltuz88lN+pKvdjYQGRtlCt7MiefvyKCY/CvOyOGb/HqyD+XwWbaBMP/2DurE2CAVe3dmse1YA4dyC/kgrYnYIJOA01U2UePigLdKg1dTJRni/+GSgHdsoLDDTnefXCjt09lBQVNTzxeutenvO/z+y6edMjF/m9Jzxfx9wvqkli75b60ro7S0lLL6DsP1HWSRlNpIzOgEo7k7QRhOQpwH2Ul7zAZtemvf9T3atwmB+ibQaHq2S0XVep69eyX3PPQ+hwfQbi9EeszBK6p28caDf+apD7dR5jSBm//+GL8b0f5Glmxi6mjUdlRu+Y73WbM+U2p9xmtrrPI3NnQYKmhqau5idV+ib3dHHOztuOj2dce1z9Vz/bC1U3exn9jSVH9cYOmzf+bTDeIQ0Hh1sliK33L59I8zGkfRf0PHBufahkbUGudByd9gmfyrb+7IX2OrHjtlu0k5FWqVLVOumMM39882Hv+a4CTWv60p/ZWNFLs44uvpiG1tOQViefprHPFuauRoR/b65UJon/01FWvS33f41rXPhvqO1DQ2tfTIf19IQaTvS6YtZgwxUpPwGUucdw4H9raXl3Xt2xp0NSVicxqYnwuRHgJeQmHQkrv7Wz56+QGe+0lg1sKpOFpRAafDKr/Y5Nj/YWcNdBUPv7ezq+muTiiqDvLT90mDuMfywOI/1Qwkf4M1RdM/Orb/uI2/vN1+bOX2H0pN5dPcQAlqhvk40lZVzbF6O/yDHfCobuCo2bc1nO/ts03aCbiXx08k/YPf/vvHkLqXNEU8CSMUDBkbj3/uPk60iG3Fl4Qg74p8UnQR8AJxXLXqTqb7mjqLNCQuKi5F4eqKaRCupaFRhaNzxxvd++Jl/HVRjCQ9BmCV/0RppKnFHpvmo8e1z7IGUW+0GeTG26ewsBS/hfI5Tl/hm/1rOsrMWdRwmxu0g/QCGZwpmr7R0axTotTVk1tmOoqbBVTHg67nWK0jMUG2lFe2UiQqisNFAa+vqkdvRfwXSvus1rbh5GbT87vKSaff2vZ5EuiT2Z9mR1zCaEbHhpKfvKvTB9SBtG9bPF0FqmsHKV0XKF01eKFYrIJRXHbT1YwJCyBwxFRunj+SmkMZouYlUURKeiUxs29h8ohAgmLncM0ViWh05VJvs94q/wlTQGp6LbHzbmFSRAABI6Zxy/2Pc91Yjdl9kKiupLotiLiLg/Hx9sbb2wNH41prS/FbKJ92Kqup0YSSMCaUYcMD8B/S3uGKSMuoJHr2zUyMCCQ4YTGXT9CQmSoOoQeBwZqi6Zt69ua1MHpiNDOGawgN9OfO6ydzW6TS6KpQiEK9WkmEn8CxSiis1hEx3JnSSivjv0DaZ3amDm2YPTO7f3s86fRb2T77QPrI6zJU6g/eeDnZiTJYg4ePj3g9FCfzbxGk7wRJSWk4R1/OxJBjJO/uvOC4t/bt1Gv7VkXaMdFBx75s841OCIIPc1Y+y+MrZuE+WC+m85RuH1kr+PH1l9jSPJbrVj7GqhVX4Jv/Ef/+T4qxAUgaU+bnL/JpgR+LVzzK/bfNRp30GmvFIbjRv34vn67djC5hGfetfoBrE8rYl1xvdBsMpPjTPnmRL4+FcvXdj/PAigU4H3yVN9YP8qr1pq3897ND+F/1KE8+8yJPPfMAc30tx2+pfI5T8AOf/9zC2Nse47HHn2H1knjjbcl/+mf/4otjQVx15z+4d+lk9L++zPtbOuZ8z2YkGbH/5/28X+7GLUsu5oUrQ3E9nMyzuzrMyx2tbsHXuY0icdjeWtWEo7uSY1XWGVW9UNqnPq2Jd/NV3LFUTZh5tZDEyabf6vbZJ+EsfuhFo8nEx6+ORuEzi7sl84nP/IPF4eZHRFqT9pLlFUZIVRJ7i803Raxt37ZuKh64QU3Dzw1821v2HGOIix0GxzKMS4tl+ka26CQjcxYiqG34w+2u3OjbxrrXalmbc2EIMt+JGv69xJ7mXVr+8lHvBqqFkX/ilZXBbLj/Pr4ukQV8f/T6kVVGRubMomg2sPaFKq5d28yhZvPNCwB9tY5Xnq3iug97F+4S/mEhOObtYIdpXk6mH2QBLyNzlqJQKDiW2cpvRReOllou5vfnIvGkj6kXQbAjLNiXnD1bj/96V6Zv5CkaGRkZmfMUWYOXkZGROU+RBbyMjIzMeYo8RSMjcxahGR5gPpM5ERoKC8xnMhKyBi8jIyNzniJr8DJnJQobG9RqB5RKJTbn4I9ZDIKAXq+nubkJwWD9hiqyBn9yyBp8V2QNXuasQxLuzk4u2KlU56Rwl5DSLaVfyoeUHxmZM4Hc8mTOOiTN/RyV6z2Q8iHlZ6AI0S1sWNVgOpa3EGqwbqAt2Dsw5WIPZoS0b+HcFUvuljjV4UsIqlaeac/7qiZucJcnGU4UWcCfg5ysVfuT9T9YqLxULL/VhTvju6ZBeXx/+fODE8qPjYBSq+SxN9Xc9omKfPNti7QIDI3xYF6iC569vRQsuVviVIcvoVPyopTvt1VkKcF2kKVU2CwnXlxiT4zjCabvHKJL0Y1evpZ33vvYeLz97iqmdNroaDARRi3n1X//kZjzbCc4yaalZJXeWH7vrOPVfz7B8vmRVu1VLmF9+Z+sVfv+/Z+O+nEKV/PWKidG1jSzKdd804yNYnB7tELliFIUmO10vz7VdM+PYB/EhOfmERsiYJc4hYX3x+LaW1m3KThWZkNOtQ16K7ccVtDMgcM6GOrCaA/zzU5YcrfEqQ5fQiGKpZIKWw5X2IihDRxL5Xv0YAvpbmpeXu3M7CGnrx2cCbq0vJSP7jfaW7z/+R8Y2P53Mp3J+uxeVq16kJf/ewS/y+/mhrEd+2/3h7Xlf7JW7U/W/8kiqJTctcyRhm9ruOPTFlLqTm0a/CdcxaRg05bFEt2vTzt6A4L01wYGybqHeIing0ZOhpZa7BkZ1fte8ZbcLXGqwz9pLJRvc4mON9bU8uhhFatuVp/RUeypxtbVzf0R8zmGlkYaGhqoV4Zz6XQPcr7ZQr7Zmno7Rqvxf7yHO5bdxJVzE4lyrSIjtUh805qeM1ptv+Uu7rjlZq6YN4VojzoOpxbSICgQRt/B60/dxVUTg1DZBzNp8VVcLh6L4nX89kum0W6j0er6H+/m9ptv5PI5k4lwKiczrdhs09FkNf7hiQ7YTV/OX2+8kqmx7lSkHaCk3Yp7PwhCAFc/vYaZLV+yq8BUqZE3/JsnLq7g2z3SBhjiMy7xXHPXfSy/6QauXjSXSTFDqE4/QHFTe/76y78TI6bNwSXrAzamVlOen0Sd3yLm+Oazfp9p39T+/FtT/pJV+8dX/M5UbhfZsntjKvXmshFGLOWllRPxGHMry+e5UFg3nntXL+ci+2y2pVcYjXr069+a+rFQ/9bUj+YiRx6J1PGPN1spNcfdGbW6s51VE4KtD+HRQ9C1uBM6MprhHo60aatp1Js7p70HAWFRhISF4Omop65Ki15Mk2vwOKKGe+GsscNR2UarSxSRAR3XFZVaDKjxDI0lIiyYoc5QX1WLTvTbHqfB4EX4yFDstG14hXnQ2upKcMwIAoc60lpTRZMoPQTBFo2HO7bNjcZ4u9PS0kkXNWjwneZB09YjlGv8iPRr5PCuSqPREztXV9MzXnpuDlTwzR7bXrfEFezciL15BNFhAuWp9eg6PSPUGvCMcyXGrY2kJLFNdfPfn7tgcGLZPUFc6dpGW6wPf5rjwfhhCkpyGqkSRxTGZ04qfCVzbgrjjngFWmd3li72ZmasGruKBg7XdRO0NgZmJRoo36PkgLn/dcb5uhfw80iiJq/DnoCurrbf8m1HOs3NFZhyjT2avS3sb+iWB+eJrHj+SZaOM3BAbPvabnk8VxjQWNiS1XiLVtvTP+ax1fez+v29NNfv4u2H7mO1eDy8ZrPRZqS1VtctWaU/GcIX3MJ0+3289cS9PPTUGvYYJnDN/JFGN2ut5rcjtYmaOi0OapPBh4H6741+rdpLuIsvpK9eZothJkti03n1k3S8Z84gzuzcr3+L9WNd+i3VT3igqNnl6UjpRRD2iWoIgTHjmDB2OIbKUmpth3ORqEAMtxc1NRs/xs6dSZibnpqyauyCpzB1pGl+oKWujLpWseNry6msbaC523WbYM/wxIWMG2ZLXXk5Oo+xzJgaaUqvFGfsBMaN8kWoqRAFlXR9EeMThqPQ1qD3jGfq1BjTFJxtkJiG+ST4WzPfrkOn06NvEsu0WU+bdG52sRo7JfZqG2ycVHSPUWHTTNIh8zSJp/lmJyy5S9gGuzFa0URmqcCQIE9+P9lBFJymOhyM8HFyYVJgGzlHmmlzdWLWfA/CFIPTh60u32odBytURHa1qW5C5Y6bRonazY2BfyI/exjgZKclq/EWrNo3V1FUWEBhZYN4KWoEBfkmi0JlWrPJuN6srjf0sLpuySr9yeDirKGpOIO03CKO5ezn82du4951KWZX66zm983J+rdk1V6ksZCsrBRScpqoKdhPzp4MjjlocDJLgf78W64f69JvqX6cHRQ0NZ1AZ1apqEr9jawjOeQk/UxK+XBGRIhtq62Ygxu+5tedB0WtLIOk9GI0fsNwENtcc2U+lWJcLVViXsR8NFUVdLkWhsQS513Mvt/2kZuXQ+b2XRwbEkeYGKwRZQN5238lNSuXqhaxDJStFO3dSuahTJK3HaTK0w9vaban7Qjb//tfdhdanmxRKMpJfvgXjtQpUKTtY/2aI1aZLOyMor6CpLdT2f5hIdpe5udzMrXiS9mOkVHtBsm7YsndrqqaN78o4b2Pi9lTD25+atzMbhInGz62DXz/UTEf/K+QTzPEMnNyFF/QZreTxPryFagXXwIaTU83RdV6nr17Jfc89D6HB1g3ZxMDFPCWrMZbZ7W9b6yzum7JKv3JkL59Gy3j/8pzTzzMimXXMWfMMOyOx22d1fy+OVn/J4pCLC/z6UlhXfot1c8J9xdDKaVlplOFwkBJcTkuooYl5c/OLZDoiTOZPv9K5o71QyG+DKyZZVe4u+MsjgAS5i1i5rzLmDXvInyUzri6tr8Ra6ntbFGwtZoqrfm8WUtDq0p674jpEUSNURwRnEZhIDS10NLaR3xFWlLrwCfCGe/eVrNYcNdr9dRLLw6Djhop/yrbrprsSYZPvZ4qUa4rxDiO5tSQlNEgKoKWETxnEfjIc0SIh1+kAvtL7zWeRzzwexx7i+ck0NWUUNk4uGGebgYo4CUGZjX+VDPYVuObU95h9apn+GxbBrV24cy87QnuXTjM7Cox8PxLH3w6OLvKb+AMLP291Y/03WsgszPHsdGICoD5XMTJ2Qldq6hMeI7l0smBtIkjlm0/fMl3W45YvfpC0LXSVpXGlk0/8pvx+IGfvvqYnQV9aeLnRodX2LSQlC0qSp7OJPQ6jdK/uyUGM/za7ErWfVfBnmorGkXVNopeeZ488SjLFd+3e94xnue98R0dhiGtx1Z8jwvW/9D4nKN3Ad+nNmnJary1Vtv7Cn8gVtf7R+niiWuPxSu1NElDMmdn45WUJCdnRxq0JpVMulY6OGEjdvjt33/Oulcf4YX1JYTExprnkAdmNV/y4ubiTLOo2Zmw0n+XsjoT9BX/wPLfF9XaNpzcbE7gu4kHw4JN032CyofgYSpKj5VhIw7v7bXHyCuqpElvg3doAJ3NXOvb9Dg4mupcost1aSElrsEEObTR0tIivhi8iLooBo8BLrKRDFF4BAbhdoqWFp8IR4zTJPbE9zFNYsndEqc6/N5QGBrQl5fSKh76VrEd1Jcbz1sr6hAG2A5F8Y6nq0B17dlTZ4NN7wK+upLqtiDiLg7Gx1uyou6Bo9FquiWr8VZaba+spkYTSsKYUIYND8B/SLsk7s3quqZXq+v9IbhM564X/o9/PnY9wZ2EiEJRS2raUYIvvZ7EqCBCL7qe+fGtZKblmJ9Qk7jiVZ76yyLiQ/zxCYxjXIQHjVXlZo3QOqv5dk4+ePsEEJ34By4fayBlf5rZxUqr+32UvzVW7fvDav991o+V6bdAdqYObZg9M7t+O7dMawEVjlOYf9kVLFg0FbdjW0kq0GEoTCNdP4JZl1/OrPnzCLetpv2VKlF+KANd6FwunxZlfKl0vnZozWXvzlJ8LrmS+QsWs2DuWFwq8inv4xNHn9j6EzVhEhFDrfnIevIIBnv8F8Zw0TxP7Pqamjim5WCtqGRFOePT2zOW3C1xqsM/xagi7ZjooGNftvlGJwTBhzkrn+XxFbNwP+MK14nTZZnkcXRHKWmNYOriJSyaN48ZMxMQ9vxIRh2UZWWhD5vBZYsvZ9rYYTTse5e3v8gUO5Rk1R4qDmXSHDyFBQsXM22cP9q97/HOl6J750ng2kJqXMYz96ormTtzFpPdc43LFCX/5dnZ6MIuZeFli5ga70nFb2/x7vf5x5dJeicsZKzNXtbv78cgo3KoKBxHM6QmiV9+y+qyxKnmcBb1gYli+JdzSayGgg1v8MHmYlrFZxQKPYV5lfiNX8ACMf7ZiQl4VG/jw3XrKW425a+//Lcvk5w8aRbTp09lTIiKI+vX8P4vpcZlbJb9m+mj/NNro/j9U0+ybOFcpsUMReEUyqSZc5g+YwLqjO9IJoE5owV2/5iMKmEB4bU/sq0oiMT5PuR/vZUCQ//+D1aY09BP/VhKvzX1YyjT0xaj4daRAjv366nqthS0t2WSUp2GRNqTs2EjB/OlD/gHOFRUaxzZKYRGynIyOFxQSEFmCnmFuWRnm+pUQmgs4UiG5F6B9HWn+3WbqP3nZqZzpCCHQ6mp5FeIwzwpXH05uekFx5f59bhWaClKP0SlXkpDDYVpaRytaxPvd82PRJdlkv1g7TJJVK6EzByK8lARBcd6n05SKNpocnFhQqg9jdk1HO621LBXd3EkMnqyMx4VWjZKK2EEG8JGuRNm08T2pMbjS2olTiz8vsPrgYVlkq0pG7oskZQwLpO0Als3FQ8u1+C2U8szBwQM3dPhOJ4rlk5Fve8j1osjkXMVeTdJmTOCoLbhD7e7cqNvG+teq2VtTkcHcxaFQo9ff6qjmbFwCCmfbqGsP6FwFmIQDGjrRO3ICtp3kxRim9l8uYG2NnHkVq3ktlftyOk0BSEMD2TKYlFBeTeN/H5+KCb4eLD6eg/0O3N5eqv0OuuKJXdLnIrwpb1onv2bTlRXRBmvtOGDV9W8W2ldnVuzm6TvRA0vL7GnZZeWv3zUu3FvYeSfeGVlMBvuu4+vS8+t9taZ3jV4GZlTjEIvsH97Ez8ViheNbeRrOzqRra1SPLpNdYhC0qCvp6airsuPes4FdHo9ep11wu24Bl9jw7YUW77dr+Q78X++qMF21jI1kf4E2lWSsbe+/+9TdQaGxLgRM8TAwX29aMyW3C1xKsIXR3SpmUo2iHn/dq+S/VUKWnoRwr1hjQbv4KSgYHM9L2wTRxh9pMd/8u+Ybb+Dd77NpHGgZXIWIWvwMmcd7dsFn8P96jjS9K22vk58P1m3VMOa/eClVR++ixLwK0xh/4EB/0TqvGYw9oOXPphf8re3SMy8iye+s2bx5tmLLOBlzkpkgx8yJ4Js8KMrsoCXkTmLkAX8ySEL+K6cwA+dZGRkZGTOBWQNXkZGRuY8RdbgZWRkZM5TZAEvIyMjc14C/w+2v7CpyVPiCgAAAABJRU5ErkJggg==;" parent="WIyWlLk6GJQsqaUBKTNV-1" vertex="1">
          <mxGeometry x="300" y="840" width="376" height="77" as="geometry" />
        </mxCell>
        <mxCell id="4N3UYrN6VFZyfdFpkZMw-24" value="eso puse en el main...&lt;br&gt;&lt;br&gt;se puede reutilizar a &quot;lector&quot;?&lt;br&gt;&lt;br&gt;Esta lectura esta bien en el main???" style="rounded=1;whiteSpace=wrap;html=1;" parent="WIyWlLk6GJQsqaUBKTNV-1" vertex="1">
          <mxGeometry x="80" y="850" width="190" height="119" as="geometry" />
        </mxCell>
        <mxCell id="4N3UYrN6VFZyfdFpkZMw-25" value="esta bien que se vea asi en consola o debe decir &quot; la ganadora es mariana&quot; o algo por el estilo?" style="rounded=1;whiteSpace=wrap;html=1;" parent="WIyWlLk6GJQsqaUBKTNV-1" vertex="1">
          <mxGeometry x="70" y="1016.5" width="190" height="119" as="geometry" />
        </mxCell>
        <mxCell id="4N3UYrN6VFZyfdFpkZMw-26" value="" style="shape=image;verticalLabelPosition=bottom;labelBackgroundColor=default;verticalAlign=top;aspect=fixed;imageAspect=0;image=data:image/png,iVBORw0KGgoAAAANSUhEUgAAAqIAAAA4CAYAAAAmY5r/AAAAAXNSR0IArs4c6QAAAARnQU1BAACxjwv8YQUAAAAJcEhZcwAADsMAAA7DAcdvqGQAACGMSURBVHhe7d0HeBRFGwfw/6Xn7tIgIYWQTnpC7y0ECAlVRAEBpSh+iHwqVlAQBQUpdor6odIRpIlU6b0kgUAgAdJIL6Rces9+u3eb5Ijc7cEFDvT9+dzj7c7dZOadmd25bYicnN0YEEIIIYQQ8pjp8f8nhBBCCCHksaKJKCGEEEII0QmaiBJCCCGEEJ0Q+QW0p2tECSGEEELIY0dHRAkhhBBCiE7QRJQQQgghhOgETUQJIYQQQohO0ESUEEIIIYToxL9iIsow+vAIfQtvTeqFlgzdm0UIIeTfQdv93z9l/2nQApg8wQDTfRrr4NpXH4tGiuBlQvMCXdJvZWv3Cf9eJxhjJwSNn44p48di6IBe8LEpQ3JMKkoYEf8J9jO+k7Ds7QAkH7mKPFHjes0ZwaXHMHSzy0XU2Vsoeqg8nj4BL36DudNGIWzIcISGuaPw8AWk1f297trHt5HnmKX4oGMODl/L5teQJz2+jH43/OereXipox4un76J0gcsY3PWT5mm/fdp96jix2GMXdB/Art9fWEMhgZ3h5dFMRJiM1COpyeOjyo+DGODIbO/whvjhsv7WEhwX3TyMEdBwk3kVPAf0sKjzr+ecHy03f/pdv/ZHO0vcRHh69cMYZVUi11RDHKrFflUlAG2fvp4K1Qf2dG1SKp4vHUjCjo/Iuox9D8Y0SYTB/63FN/+ehjFXhMxKcSRT20eIlElrmycgznL/kTqYx5EunRz50Is+HQuFqw4hrv8OkL+xsMDLnkZyGrlAU8xv+4JQP1XO9zBq7YjX8Xw1unY99NSfLf2OCrbT8bE/tb8Jwgnbven8n72xXebcMWgB6ZMHtisR/4edf5CtN3/Pe37T8YAeO1FA5T+VY3399QhtrSxDhV3GaxbX40lScCssXqwfoqP+D7NdPocUYYxx8B3lsInfBZWnC6Xr7PoMBrPtozG+sO3UBMwFctf7QbjJp2fubMTHy8/iEJ2vfcLyzHZ6CROmHfHAGdTlKRcxI51v+F6oeI7naaswKSOhvL3TOY+LPr8D2Tz+Sl+sS6Ey40tqAgcAV+rWuRc2411G88ihz8iy5i4I3TyJAS5m6M86SDOFgVjENZj9sbr8nQhQuVjjJ0RPG4C+gc4QFKdh8SLu7Bx9xUU8kcsGKkvnpk8Ft1cbSARVSDvzkXsWv8bomUitvytMWLuPNgffg0/XVI0o/tzizFd+jveW3tZvsxhbIfhw4/cceLtb3C+RpEvh/GfIhhfxtQNg8aOQU8vB5ixpUqO3I0t2yOQV18+M3+MnjwO3ZylKEk8hPNFQQgRbcb7G64q0o1d2Pq9gCAfe5jW5iHhwnZs2XP9sf2qVlf++vZ3i9mCYr/hCLBmfylf34cNG44jo5avn0D51bbPExBfof7HcRg2HzPNjuJkmzGwOzwL667U8ilc/m3Q9/kXMMDfERJGxpZvD37bEY5cdnwI1U8GR8H+KVR/jqr+qwlt2l+T8aXV+G2O/qF2+2CLYR9+CqeTb2D1uSr551v1m4Ep1mewbPtV1HH5a9l/tN6+adG/tI+Pov2dT/0XP5yvVnzeYSTmzfbAqQ+W41S5dvHRKH+B8qvNX4P4qNv/cdTFn6PJ/lPt9lOD8adq/6tR+wv0L464kz62DwbeXVSDGKX1yhgzEb6bp4+IpdXYkNvk74k7Y+qHk+GTvxdff3kAmU3KQ7Sn41PzVZB49EdPxxJER91BaZ0IlVmxiErMA8M1duEdXI84jzOZ5ujqkoFty9Zg7+mTOBMZh/zyKvlnrANC0NnbEKkHNmH36UQYBw5DqPNdnLmSgRo2PS/+Ei6cPY6zstbo45iP06dvKZ16lKBt72AEWufjwo5tOHy9Cl6DRsG77CzCUyvZgQK4jngbL7qnYNcvG3G2wBO9eznBLO8KjlzL4fNQT135qqEHz+c+wPM2V7F13TacuF4E50Hj0bHmPMJTKuXfdxv2Jp6zvop1azbg8KV4iNqGItg2DSdjctlUc3j17QezxH2ITJd/HC18B6KzUQwOR2UqVnCknujTtwXuHGpyalMgvnUwRIeJH2GERRT2/L4dRy7noc2A8WhffY6PjwECx76LEewPh62/bsH5XBf06OUGy/wo+aljht2YtB39HiY4xWPn+s04frMWvkPHwKf4LFtexY5RHYZxx/OfLMQrzwzB4FCll5MMhyNTFH1EDa586spf3/4BLWW4tJtt/6slcA1+Fu1qL+JCUrlG5VfbPk9AfIXGB8NI0WXISOhd+wXhNT3Qv2UyTsTky7/L5e8x6j286JaCP9ZvZOMjgzNbvq56EWx8yoTHp0D/FG4fnqr+K0Db9hcaX1x8tBq/WvYPwfxhg4ABPWEQ8weiMhVxK00Ox9lYtu/I2177/qPN9k3b/qV9fBTtb5l8ABFpdfLPw9gdPfvZIevEWSRW6mkXH8H8hcuvNv8igfHHto+6/Z9g/Fma7D9Vbz9VjT+2/ZXGn6r9r3D7C+8/OZ5dDBBSUYtvr/Er7of9uEtnfTjn1uIEP1YaSLwRNDAA1qJMRBy/DllD/Ulz0empeZGIQfTezYhtORoffDIXr44JRaCtMZ/KplfKkJmVjox8tlOjDPmZafLlzPwS+a/5evp3zmFfVBLS7oRj19HrMHLzhAOfVlWSi9zcu8grU/wivZ+cywdxJj4VKTf+xOHoKrR2rr80wAptPWyQdGobziWkIPHS77iYasSnaU51+VrD10uCmKM7cS05Dam3TuBARB48vDzlqRypWIKK7DjcTs1CVvI17F35PhZsv8mnakcoviJRDaLWvo3Z3+5A+O0UpMWfxpmb5XByc+JzsIWbiwS3j29FRFIa7lzeiXOJ+nwaxw7eHi3k6eGJaWx897P1K2Xr58GnC0nBodWLsWxJk9f2y/e0vyrC5VfIu8K2/222/WMO4kC4jE13h0h+ika4/Ora50mJr7rxAX0fuDulICG2EslxCTBl0xpPT7H5e7bE7WObcTEhDWm3T2L3n6eRDwt5fDQdn6po2j4PS/v2F6Ld+NW+f2i7fWiG/sN6+O2bdv2rueMjMrBG57CesMuJR1wRt6Z54lOvaf6a9k9V+Wsy/tTv/9THn6PJ/lPV+FFdvzb8NxVU7X+F6yc8/jhmpkB5pdB4ZlBSAYjZzzYlkh3Dyvnz8enibUjSYLtGHpzOrxEVySKxftGH+HbHRdyVdsIL787GSPcHm+xVVpQ2DLyaxNP441g0CuVLmikvK+HfARUVlTA0MuGXzNkNWR2KChW5cQOrQFYqf/8gVJfPFCZGRug4dSW++nqF/PXeADvoGRlDn98QxIVfRGWnaZg/5x28PGE0ggPsYaTRTrJ5WPg+i9c/WoqlXynKN6OHBfQN6ttHDBPjapSXKjZSXBXLypWvwpdCIm5M55SUlsNYKm2onzoiUTWKc9gND7fxUX4VaH6lv/ryK5SXN7Z/aVkZG38TGMiXhMuvbfs8jviqHR8ebeEqi8dNdsdYG3cbKfae8GrYGEvZ/s/mX9J49DovchvWHYsXPBqtKU3aRxvatb+QRz9+hcqvXf7N0H9YD799075/NUd8fMZ8Lf/u119+hvFuWfhzw17+WsjmiY/q/DXrn0L5P7zmGd/qxo9G40/l/leI8PjjPEBVVJy4B6qLs5FfcW+/Ic3niXh8k4gpQcqVI9j58yJ8f7IO/Qf3gGmTjYWmRLJYnDx+vZnurmR/dfPvmsvfy1eOq9sbj/YtXfIZvvgtArV8esWt37Bk4XfYczEORQau6DflQ8wcZC9Pe9QYvUCMfKkv9KM2YuVyRfl+uyw/VPBYcKfmn5uv2MDc85rWE3oa9I/HUX5t2kcX8W3a/+w93CFtGYxZX36P5Z+NhbueC9w9H89m4VHX//HE99GNX03K/7i3D0Lb1wfdvmmjueKTcHAp+91FWPzJLLz3yfc4ltw4MXtQ94uPqvwfpn8Kxf9J8iSMP04td1WEYLhE0GM3e3X8FRTk8dLpRJSBN4a/8Sp6t1JMKrhT9Vk5d9mfURYwk6+px7D/6UIpyiv0IJEoDhFxc5/6982jHBVV7K+3qqyGo315FSIY8oOI+3sGxmLoyW4j/Pif+H3dcqw+nANnH2+YyCdixeyvUUAsUURLUT4xykqK5csN2AT18VORbukAO3EKLh+9iuSMdGRkpqO0TvlYEVd+Q5hK+IvZ2UzEpsq/ZkvYX8iN6RwpG7/KkhINd0TanZoXLr+CqamUf8fGTyxGbWU5auRL6ssv3D71nsz4MowYXu72SDq4DMuXLWJfn7M7iiq4ebjxn+DzlzZeLmPddQJeDfFscupaVf8S6J8atg/3xfvn30hfYgWzew+0NEP7C40vbcdvvYfrH8L5l6OySg8mJo3tZ9t/JmY/347/Iaft+BSiPj5a9y+t46NQVZTJli0D2QXlTbYrmsdHXbRU5l9f/mMC/V+Q8Pi4P03jr57K8aPp+Bakqn5C/UuhoJiB1FzUZMz9nbUZA1lzz5OJRnR7RJTJZoeCP8LGjECgiyMcPXpi3EA/FCbeuvdxLfkyFIldEejvAnu71rC3bBw46nAXS0tb2MDa2gYtxezGRF8MK5tW7HILSPQ1GWi5SEotgmv3MLiJ9WHaZhC6uj3ckL+/dMTcKoT3gHHo4uYIB4/eGPfGbIxuL+HTjdHt5WX46NVQ+DrZoVVrb7TzsEJ5QT53bTVEoiLcvJUB5z7PobtbG7i0H42QgCrExSYrvl6vsACFtW3g09UJNmwsrK2tYKqnVA9V8ZVlIrvCBd2HdIazQxt495qAoLaKJIUsJCaVwrP/WHR2dYRLx9Ho7aEcnyzcjCtQpLP1c/IbgrDOEsTdiufT1dP61Lxg+RVadghF77Zt0MY3lC2fJVKTEvlTU0LlV98+DZ7Q+MqvD3XORcL1O8jOzpK/rt5OgaW7F/94mSzE3s6HV/AL6ObuiDaeQRg1tDvENfn3nrpTUT/B/qlh+wj1X0baB9MXLMbC2aPhpLyz0bL9hceXduO3wUP3D6H8s3ErIR8eQWPR1bW1vP1G9PdCRW4aPyHSsv8IEoqPdv1L+/gIecTxqS9/mED/F6IiPsL7P/Xx13T/qXL7qen4FqKq/QX7l0JiHIMSN330vXf1PQzcROhiCkQl8iuUcHf3B0//GLOn9oPFA0zQieZ0ete8SFSB5FspMPUKwqDBg9G7gzOY+L3YtDOC3fEobYiKMyCTdsTAEcMwsH8QulqkNNwVzt1V2F4vSsVd7O54du5HeHHwAPTxtoZI4oouQcHo268LjG8dxo38v9/VqHxXLDeW7qblw67nKIxi/3Z/nxLEpVrCoebqA901r6p8XP55CQmodemL0CFh6NPeHhVXt2LT/nj2tx63I6xFRko+bDuFYPDgMPTvHoiWskvYtv0osisV8SlMikdJ6+4IDQtDTx8J0o6tw/bzOahW3pDXZCCn0g29ho5C2MCB6NcvAHWXjyOuhP+MiviK2B8Kqdnm8OsXhpD+3eFqGI2LKfbwNrzJx6cO2UkZkPoFIySkP/zN43AlrTXcRdHyu7rr61ft2huDQ9mNlV8L5J3fgN+OpaFSuXyPiFD52d/v8vbXu3Ea4n6TMaK3K2pu7sbmPTEoZrj4qy+/Ju0jp8P4qh0fbv0wunMZzu64jBz+mE51dSt0DPNA8ckLSKtl9wGJ8ah07IFBoUPY/umAkqit2Lw/DmXKx4DUjE91/VO4fXhC/VffGj7dA2BVGI2z5xNQwtdd2/bnqC0/+xFtx6/cQ/cP9fnLyxfP9g/nXggJDUNvtnzy9jsQL2+/+vI/dP9habd9065/aRuf+va/5652JQ8Sn6P3jY9A/hr0f6H4y6kcf+r3fzEFQvFX9/0jDftPldtPDcefqv1vA1Xtz7ePqv5Vry6PQa2XPib5MQi/xkDW5Mkb+mbA25MMYRFRg29vsJ/n27aBaScMHdsLxtd24mh84/WspPno9DmiTwsGBjBvYYZqWT5cxn6Jl/AzPtwSy6eSp1X9c+xcT7+JVec0O0ZC/jmo/Ql5eE/T+GGMgYmTDTDOFti6rhobkxWTTdtO+lg2Sg/lkTX4cFddw/NblTHeL+KLGc44vmAh/mryjFHSPJ6Im5WeZNzpCbMWVjDWY//fyh/+zqbIyc7iU8k/QdMfwOTfhdqfkIf3NIwfETtP3vhDNaZtqkWi0pVdNbI6/PR9FabvvP8klGPv6gJxagQi6Z93e2RoIirIHcPfW4iP53+Gue9PhWfBbuw6pXjgNyGEEEKefCJ2xpyVwOBcduOEM49dPsMu33NNshKGMYKriy2SIi8+FU8qeFrRqXlCCCGEEKITdESUEEIIIYToBE1ECSGEEEKIToicnJv1wZiEEEIIIYRohI6IEkIIIYQQnaCJKCGEEEII0QmaiBJCCCGEEJ2giSghhBBCCNEJmogSQdy/LuUz6kN8OKM/WjFP7r1thq0MMX2aOd5qR/ffacojRIqvxxnDT0wxI4QQ8vjpfCLKmLhi0PQFWL5yLX5Y+Q3mTOkLB4Pm3Sky7adj1YpX4fcET6KEuHb6BjsHD4ShTuqgD7NWDrC3s4aYX/MgVMW/4/Sf8eu6LfLXL2vnoK/hw9dN2tYEa+ZIESirwNEkfqWOaVq/5uyffpNXYdX0zvySsLRrlYixNMH388wwuIUu+hYhhJB/M51PRL1Gz8LzTunYtWI+Fq/ajyK/VzB9mDOfSjjc/MTR0ha5sjRU6+CfGROJKnHpx5n478e/404z/v3ozbMx+/23MHv5QWTz6x4GY2iAWa+IUbpXhte3VSK66Mn4p9iaq36PUkVWNX5aXYgF8YaYM9nkiT7iTQgh5J9Hp88RZRgLDP14NfzPT8PSI6XydVZdJ2K87RX8sOc6alzHY8l8b5x452MczOcnF+xE9ds3LbDl9eW4UC0CY94OY2dMQh/3VpCIynE34Qy2/bgWkeznmY6v48c3esG4yeSJSdyCdz75AwXsesbEDaFTX8Hgdo6Q1uQi7swWrNlyCQVg03ym4JsXTRAua49eFifxwy4xJr3cFbLDX2Lxjpuo1WBSxjAi2DqPx6ud+8HX3ATlBZHYcnIljshq5OkGHrOxrX063vl9PZK48hiGYdGkYERtfRfbiuwx/tkVGGfdpPxMEQ7vn4yVGer/PsPY4tnPvobHtbUoajcaHWwY5FzdhTU/HURKjeK7AVN/xH9MjuCIeR8MdhOjJOk0Nv+wFlcKFOndXl+P6V0N5e+Z9F34aM5WZPL1rs/f7epaVHR8DgEtapAZtQ0//nQcWXWaxV++7PAcPl/UFn9NW4RTbJvWE8q/nri7FIdG1mHGnFJEs+2mTKh+6tpfnq6ufzFOeP6LL9B630R8e6ZO/nmvF1dglhkbs1WX5MsclfXTpH9KvDBs0kT083WEOWRIvPgbft1wAXfry2fZAROmT0YvNylK4v/EqYJBGKr/K2b8EKFIN3VH6JQpCPFzhGntXcSd3oRft12BrOnftDTGL18Y4/z8QqxR+reYOYxZD8z8/DX45e7A55/uRnqT7xJCCCEPS8dHRIuQmV0Cx8BesONPWxZc2oiVf95QTPKSziAyywOdu9vI0zg+ndrD+EY4IqsUy22HTcUA40is+fx9zF28GuF13TF2aKAiMWYLFs6bjXnrI1BRchG/zP0A89jXx6uPs7t0dgfLThL9xr2N4VbR2LR0Lhb9cAjlnV/HKwNaKL7PsWqBgt3f43TdIIzzj8GqrTGwHTQQAXyyED2bcZgX1AWF17/DvL1f4UhNJ0zr2g9i/shTa3NboDgTqfIllpUdbGuzkV7ELeRi35GZeO231bhQVYxTx15n37+OGVvfw7os+ac14hTgjPgti7Fk9QEU+07ESyGt+BQFQy9PGB79Hl8s/QVXTfvj5fE9YMKX78qGd+VH9eb+HiNfvh8Xf0fEbliEJT8dQ3XgVLwYZKlIEIi/plTmz2vrzE6U71T/bRJaT1X9NGl/tf1LW4L90wBdJ72LMMub2L16ARav3IfS9tMxKVhRfy6907jXECSNxsZlC/DjCTF8fIzlaRyG0YPvmDcx2uEOdnw7H8t+PQfDfv/FpD7m/CeUFFTjWq4hvFz4ZWWGVrCUGMDE0hKm/CpCCCGkOeh0IioSMbi8/WdE24zHguVf4M3JI9HJwYRP5dJTcS48DW5deqKFfOLQFh3bmeFG+MWGU9TmZhKUZ8biRlI6MhIuY/uS1/D+hmh5mqgiH+mpKUjNK2W/W4b8lGSksctpOcVg5N93gr+vFNEHNyMyIQV3og9hz/m78PT1kX9friwVt25FIzqhHLKUy0gIj0WGqQRSfT5dDW4u18F7ICyS1mEFm0dCbhR2JcTBWGqD+qlUa4tWKCjKQA1fHyMLO7QoykI6+14kqkFRMfu+2hgWhjlIyspEBrucUZyLEqUjgkLuhu/G0Rt3kBT1B3afL4Czh5eicDy9hFPYfuk2kuPPYcv+KBh7+KINn1ZVlIPs7GzklPAz//vIDv8Dx2LZ/C9vx/6oKji5KmYzwvHXjKr865mZilBe3lifplTXT7j91fUvbQnFh2v/8FXTMHPRJpy7kYTk2CM4Hl0GF3c3PgcHeLhKEHNoHc7HJSPh4macjFfumA7w827Jpq/FudvJSLqyC7svlMLL35tPV8agpByQSP7eLqL8/Vj6ztt4b+56xD9AuxFCCCFCdH6NqCj/In766L9YvOkscqTdMXn+QozxMeJTgbSzF5Hu0hU9uIN4bl0QaHEdkZcrFImsmHNnUdntTSz7/GPMfGUCQjs5wkhpkqWeGKbGRug6YwP+9/N6+WtemAP0jUygrzYPETtR4N+qZQcvGwsk5cY2TLxamJgBlcUoZN8zTEt2ImqMrKI0eRqn/ghpBr8sx05OW9VkI6OEX35A5aXF/DugpKwM+iamUJxsV6gsL2koX83tY9j215UHOmJZVio/fCtXXl4BQ+PGo3LNQSh/obmR6voJt792/UtzqnK0aj8e7y1ejVVrFOWb1dcKBob1rSeBqUk1G59q+RJXxbIydjbZwAwScWM6p7i0DCYSM4H+/XfVsizklTV/vQkhhPy76XwiyhHVFSPp0l5s/v5DLDvMIGR4UMOpa2SdRniKKzp1bwXnTh1gdSMcl5X2tRXRv2LenCX4/WwsCo3aYtBrn+P94Y58qibKcHnTXHz6Sf1rDj5ed0Gj6z+FOcLerBBZssYCO7KTyqLCdJTK83eEnVkZsou4aalCawsb5BVl3HNTEneU1Ko4G5n88qMkyr+Gwweu4G6z1P/xqOUuz9SwuH+vn/r2175/PTxGvyPGTBsAg4j/YfkCRfnWhTf2leamr8/+TcWlroQQQshjodOJKIMAPDfnLQywV0w6uVP16ZnZEFlYoP4qNpHoLs6HJ8Cl3VD0C7RFTMQlVPCTBG6uamAqhV7+DZw7sB0bVn2CL/dnwc3fv+EaRwVVR3LKUF5pDL2KNMUpUfaVUwoY6j34JMzA3BoWTQ8EiswgNSpFMX8Al2Hs4N7CGAm5cYoV4NKLUcTPUxnGBW1bGiA5L1GxgtfGvBWYkqx7j5I2cd+/zzOVmPHvAKlYjNryUjQeI3scVMWfp+URxoLiWkgt9Zq0uSbUt79w/ypEOXc620wRX26V1EyM0uLGI9ByguVSkd6yDRwkd3DpQCQSU1KQyr5Ka5WPZXPlN4RYwt9MxmYjFitfxVmM0rLGdI6ZRIyK0uL7/NDSh7UFg4JCobISQgghzUe3R0SZTHZX2R4jJj2PTh5OcPYJwuShgZDFxUL5XpyccxeR6NIffexjEBGhuLtewQR9Zq7C4jdGop1ba9g5B6CLZ0uU5d9F48l7Vl4BZBJ3dOjkDsc2TmjNTgYVUnA9phD+Q6aip6cTnHyCMXX2Z5jQWcKna4YxH4BZX36HrxZOhKvypIPJQV6ZLbr69ELbFp7o2ek1DDU9j0NJ9efYc5BbaoPOnt3hbOaMHl2nIcTgBPYl3lN6GOsbQWTqAE9LeziYtYK53r2TBZV/n2fTeSQG+LrApf1IPNPdCskJ7ERYgyOe3M0w5ja2sLW1RSupETtXkaClnR27bAPpgzzrVWX8eQV5KKh1QUBvV9ixf8vWtiXED5D/7ZvVKPYwxqD73IOjnlD7q+9fIlEhrt9Ig2v/iejj7QL3rhMxtF0Vbt5IUHy9nlD9uPiI7xOf/HRklbuj16jucHNygX/wKxjkrRyXdMQnlsJ38CT0aOsM924TENT23vQbsXls+mT08HSGa4dRbPtLcPP6TT69kaGXEXqYViPyNr9CCfcDKvTtpfhsZgisBCfVhBBCiOb0LSytPuHfP3YiURkSYu5A6heCocNGILirG5jbO/HzpnOQ1SpNlMpyIG03HL7Z+/DLycSGG3u4mzlS7+TBodswDBsxEoP7dEDLgrPYtGE/MiuUvl+YCpl5N4Q9Nxphg0LQyyoJe8PT5XOxnFu3UOMxECNGPYPgzo4ojVyLX3bcRCl3rtemA0I7Mrh06CoMOwxD28JDOJvugj5D7ZC85wxS6y8UNbBhJxkd0UJ2BSdO3UJxQ/nuIrFQio6+o/G8fx946d/G1pP/w8niWj49D4kFJujgNwYvtB8Ab9F1bDq2Buea3HhTUGkIP8/hGNNhBIb7B6Iy/iCuVyrVT8XfB6TwCQ6F3tVjEA+ajjFBHqi5sQ2/bruKQv5mJ9sOw9FZLwL7L9/vNnwvvLB4EV4ZHoZgPxuIpO7oOSgUAwZ2h0nsPly9q8jfKmk3zt9RnNO1bjcEPYyvyuPbQEX8G1SnIavKE0GjxmHkkCEYOKgDmPBDiGFjp0n+dTk1qPWTYFoggwuXa5CvdCOXuvoJtb8m/UsWfwslzn0wfMQz6OcvQcpfP2Hj8UxUNbQBS0X9Yuufd8rFx+I+/bMuA0nZFugw6BkMC+kDd4MrOJfUGn5G1/n+W4eM+DSYB4Zi2PAQdLC8hci0NmgruoJ9ERny+t29fRvVHv3Z8o1EUDtr5J5ag7UHkhvOKnD0LQ3x0XQJLC8UY0kUgzrlsnPE3fDslCCYRG7G/ptNjvYSQgghWtDpc0Q1xTCueGHZArQ+MB1fHlc+IkrUqX8Op/vxKVh+rJJf+8/EmOjh5RkWeMm+Fht+KMTPCU0mU+S+7HtIsGKcMSouFuONzVXIu8/Ftkzgf7DybVf89cEH2NPkGaOEEEKINp6Im5UEufVAh5axiLz0kLeN/8uJNL2T5ykmqqjDz1/mY/zPFYi798oGokZNQTVWLs3HhE33n4RyWnu4QXznPM4/wLNrCSGEEE08FRNRt66d0eJWBGgeStQRiUTIuFmFU+l01E5Td9l4HVM8tFaxogmGMYKHqz0Sws88VU9SIIQQ8nR4Kk7NE0IIIYSQf56n49Q8IYQQQgj5x6GJKCGEEEII0QmaiBJCCCGEEJ2giSghhBBCCNEJmogSQgghhBCdoIkoIYQQQgjRCZqIEkIIIYQQnaCJKCGEEEII0QmaiBJCCCGEEJ2giSghhBBCCNEB4P/bm269HF6P7wAAAABJRU5ErkJggg==;" parent="WIyWlLk6GJQsqaUBKTNV-1" vertex="1">
          <mxGeometry x="70" y="1160" width="674" height="56" as="geometry" />
        </mxCell>
      </root>
    </mxGraphModel>
  </diagram>
</mxfile>
